<svg width="90" height="114" fill="none" xmlns="http://www.w3.org/2000/svg"><path d="M80.697 0H9.303C4.446 0 .493 3.952.493 8.81v96.381c0 4.857 3.953 8.809 8.81 8.809h71.394c4.857 0 8.809-3.952 8.809-8.809V8.809c0-4.857-3.952-8.809-8.81-8.809zM3.834 8.81a5.476 5.476 0 015.47-5.47h71.393a5.476 5.476 0 015.469 5.47v34.026H3.834V8.809zm82.332 96.381a5.476 5.476 0 01-5.47 5.469H9.304a5.476 5.476 0 01-5.47-5.469V46.176h82.333v59.015z" fill="#5200D9"/><path d="M64.633 10.709H14.658a3.459 3.459 0 00-3.455 3.455v17.848a3.459 3.459 0 003.455 3.455h3.57a1.67 1.67 0 100-3.34h-3.57a.114.114 0 01-.106-.07.115.115 0 01-.01-.045V14.164c0-.063.052-.115.116-.115h49.975a1.67 1.67 0 100-3.34z" fill="#5200D9"/><path d="M75.343 10.709h-3.57a1.67 1.67 0 100 3.34h3.57c.063 0 .114.052.114.115v17.849a.114.114 0 01-.115.114H25.367a1.67 1.67 0 100 3.34h49.975a3.458 3.458 0 003.455-3.454v-17.85a3.459 3.459 0 00-3.454-3.454zM36.075 53.545a7.032 7.032 0 00-7.024 7.025 7.032 7.032 0 007.024 7.024A7.032 7.032 0 0043.1 60.57a7.032 7.032 0 00-7.024-7.025zm0 10.71a3.689 3.689 0 01-3.685-3.685 3.689 3.689 0 013.685-3.685 3.689 3.689 0 013.684 3.685 3.689 3.689 0 01-3.684 3.684zm0 7.139a7.032 7.032 0 00-7.024 7.024 7.032 7.032 0 007.024 7.025 7.032 7.032 0 007.024-7.025 7.032 7.032 0 00-7.024-7.024zm0 10.709a3.689 3.689 0 01-3.685-3.685 3.689 3.689 0 013.685-3.684 3.688 3.688 0 013.684 3.684 3.689 3.689 0 01-3.684 3.685zm0 7.14a7.032 7.032 0 00-7.024 7.024 7.032 7.032 0 007.024 7.024 7.032 7.032 0 007.024-7.024 7.032 7.032 0 00-7.024-7.025zm0 10.708a3.689 3.689 0 01-3.685-3.685 3.689 3.689 0 013.685-3.684 3.689 3.689 0 013.684 3.684 3.689 3.689 0 01-3.684 3.685zm17.848-46.406A7.033 7.033 0 0046.9 60.57a7.032 7.032 0 007.024 7.024 7.032 7.032 0 007.025-7.024 7.032 7.032 0 00-7.025-7.025zm0 10.71a3.689 3.689 0 01-3.684-3.685 3.689 3.689 0 013.684-3.685 3.689 3.689 0 013.685 3.685 3.689 3.689 0 01-3.685 3.684zm0 7.139a7.032 7.032 0 00-7.024 7.024 7.032 7.032 0 007.024 7.025 7.032 7.032 0 007.025-7.025 7.032 7.032 0 00-7.025-7.024zm0 10.709a3.689 3.689 0 01-3.684-3.685 3.689 3.689 0 013.684-3.684 3.689 3.689 0 013.685 3.684 3.689 3.689 0 01-3.685 3.685zm0 7.14a7.032 7.032 0 00-7.024 7.024 7.032 7.032 0 007.024 7.024 7.032 7.032 0 007.025-7.024 7.032 7.032 0 00-7.025-7.025zm0 10.708a3.689 3.689 0 01-3.684-3.685 3.689 3.689 0 013.684-3.684 3.689 3.689 0 013.685 3.684 3.689 3.689 0 01-3.685 3.685zM18.228 53.545a7.033 7.033 0 00-7.025 7.025 7.032 7.032 0 007.025 7.024 7.032 7.032 0 007.024-7.024 7.032 7.032 0 00-7.024-7.025zm0 10.71a3.689 3.689 0 01-3.685-3.685 3.689 3.689 0 013.685-3.685 3.689 3.689 0 013.684 3.685 3.689 3.689 0 01-3.684 3.684zm0 7.139a7.032 7.032 0 00-7.025 7.024 7.033 7.033 0 007.025 7.025 7.032 7.032 0 007.024-7.025 7.032 7.032 0 00-7.024-7.024zm0 10.709a3.689 3.689 0 01-3.685-3.685 3.689 3.689 0 013.685-3.684 3.689 3.689 0 013.684 3.684 3.689 3.689 0 01-3.684 3.685zm0 7.14a7.032 7.032 0 00-7.025 7.024 7.032 7.032 0 007.025 7.024 7.032 7.032 0 007.024-7.024 7.032 7.032 0 00-7.024-7.025zm0 10.708a3.689 3.689 0 01-3.685-3.685 3.689 3.689 0 013.685-3.684 3.689 3.689 0 013.684 3.684 3.689 3.689 0 01-3.684 3.685zm53.545-46.406a7.033 7.033 0 00-7.025 7.025 7.032 7.032 0 007.025 7.024 7.032 7.032 0 007.024-7.024 7.032 7.032 0 00-7.024-7.025zm0 10.71a3.689 3.689 0 01-3.685-3.685 3.689 3.689 0 013.685-3.685 3.689 3.689 0 013.684 3.685 3.689 3.689 0 01-3.684 3.684zm0 7.139a7.032 7.032 0 00-7.025 7.024v17.849a7.032 7.032 0 007.025 7.024 7.032 7.032 0 007.024-7.024V78.418a7.032 7.032 0 00-7.024-7.024zm3.684 24.872a3.689 3.689 0 01-3.684 3.685 3.689 3.689 0 01-3.685-3.685V78.418a3.689 3.689 0 013.685-3.684 3.689 3.689 0 013.684 3.684v17.848z" fill="#5200D9"/></svg>