<svg width="114" height="114" fill="none" xmlns="http://www.w3.org/2000/svg"><path d="M113.763 66.637h-3.789V51.481c-.006-5.228-4.243-9.466-9.473-9.473h-5.374l5.116-8.864a5.691 5.691 0 00-.415-6.305 5.683 5.683 0 00-1.67-1.462L55.488.748a5.706 5.706 0 00-7.754 2.084l-22.61 39.176H9.565a9.485 9.485 0 00-9.473 9.473v53.046A9.484 9.484 0 009.565 114h90.936c5.23-.007 9.467-4.243 9.473-9.473V89.371h3.789V66.637zM96.967 31.25L86.374 49.587H52.117l20.095-34.815 24.06 13.89a1.92 1.92 0 01.695 2.587zM38.991 49.587L62.376 9.093l6.555 3.79-21.186 36.704H38.99zm12.038-44.86a1.894 1.894 0 012.583-.692L59.093 7.2 34.616 49.587h-9.494L51.03 4.727zm55.156 99.801a5.683 5.683 0 01-5.684 5.683H9.565a5.683 5.683 0 01-5.684-5.683V51.481a5.684 5.684 0 015.684-5.683h13.372l-2.194 3.789H11.46v3.789h87.147v-3.789h-7.858l2.19-3.789h7.562a5.684 5.684 0 015.684 5.683v15.157h-20.84a9.484 9.484 0 00-9.472 9.472v3.79a9.484 9.484 0 009.472 9.472h20.84v15.156zm3.789-18.945H85.345a5.684 5.684 0 01-5.683-5.684V76.11a5.684 5.684 0 015.683-5.683h24.629v15.156z" fill="#5200D9"/><path d="M81.556 78.004a5.684 5.684 0 1011.368 0 5.684 5.684 0 00-11.368 0zm5.684-1.894a1.895 1.895 0 110 3.789 1.895 1.895 0 010-3.79z" fill="#5200D9"/></svg>