<svg width="136" height="24" fill="none" xmlns="http://www.w3.org/2000/svg"><path d="M12 0l2.694 8.292h8.719l-7.054 5.124 2.694 8.292L12 16.584l-7.053 5.124 2.694-8.292L.587 8.292h8.719L12 0zm28 0l2.694 8.292h8.719l-7.054 5.124 2.694 8.292L40 16.584l-7.053 5.124 2.694-8.292-7.054-5.124h8.719L40 0zm28 0l2.694 8.292h8.719l-7.054 5.124 2.694 8.292L68 16.584l-7.053 5.124 2.694-8.292-7.054-5.124h8.719L68 0zm28 0l2.694 8.292h8.719l-7.054 5.124 2.694 8.292L96 16.584l-7.053 5.124 2.694-8.292-7.054-5.124h8.719L96 0zm28 0l2.694 8.292h8.719l-7.054 5.124 2.694 8.292L124 16.584l-7.053 5.124 2.694-8.292-7.054-5.124h8.719L124 0z" fill="#FFE923"/></svg>