<svg width="112" height="112" fill="none" xmlns="http://www.w3.org/2000/svg"><path d="M109.438 64.906h-14.25a1.781 1.781 0 00-1.782 1.781v3.563h-2.825l-4.453-4.453 4.975-4.975a1.781 1.781 0 000-2.519l-7.125-7.125a1.78 1.78 0 00-2.519 0l-8.384 8.385h-9.95a1.78 1.78 0 00-1.26.521l-1.259 1.26H31.062v3.562h25.982L53.48 68.47H31.062v3.562H49.92l-.522.522a1.78 1.78 0 00-.522 1.26v9.95l-4.822 4.821a1.781 1.781 0 00-.486.91l-1.781 8.907a1.782 1.782 0 002.102 2.095l8.906-1.782a1.77 1.77 0 00.91-.486l7.073-7.073a6.172 6.172 0 002.348.47h9.95l4.822 4.822c.334.334.787.522 1.26.522v10.687H4.343V4.344h74.812v42.75h3.563V2.562a1.781 1.781 0 00-1.781-1.78H2.561a1.781 1.781 0 00-1.78 1.78v106.876a1.78 1.78 0 001.78 1.781h78.376a1.782 1.782 0 001.78-1.781v-12.47h10.688v1.782a1.783 1.783 0 001.781 1.781h14.251a1.78 1.78 0 001.781-1.781V66.687a1.782 1.782 0 00-1.781-1.78zm-26.72-9.95l4.607 4.606-19.594 19.594h-4.606a6.235 6.235 0 00-5.142 9.749l-5.545 5.545-4.607-4.606L82.72 54.956zM52.439 74.55l11.424-11.425h5.65L52.438 80.2v-5.65zm-6.032 18.906l2.42 2.42-3.029.605.61-3.025zm33.488-.05l-4.822-4.822a1.78 1.78 0 00-1.26-.522H63.126a2.672 2.672 0 010-5.343h16.031v-3.563H72.77l10.84-10.84 4.975 4.975c.334.334.787.521 1.26.522h3.562v19.593H79.894zm27.762 3.563H96.969v-28.5h10.687v28.5z" fill="#5200D9"/><path d="M23.938 79.156H9.688a1.781 1.781 0 00-1.782 1.782v14.25a1.781 1.781 0 001.782 1.78h14.25a1.78 1.78 0 001.78-1.78V83.456l4.823-4.822-2.52-2.518-3.264 3.265a1.73 1.73 0 00-.82-.225zm-1.782 14.25H11.47V82.72h9.95l-4.607 4.606-2.303-2.303-2.518 2.519 3.562 3.562a1.781 1.781 0 002.519 0l4.084-4.084v6.387zm5.866-81.415l-3.265 3.265a1.73 1.73 0 00-.82-.225H9.688a1.781 1.781 0 00-1.78 1.782v14.25a1.781 1.781 0 001.78 1.78h14.25a1.78 1.78 0 001.782-1.78V19.33l4.822-4.822-2.52-2.518zm-5.866 17.29H11.47V18.594h9.95L16.812 23.2l-2.303-2.303-2.518 2.519 3.562 3.562a1.781 1.781 0 002.519 0l4.084-4.084v6.387zm5.866 4.085l-3.265 3.265a1.73 1.73 0 00-.82-.225H9.688a1.781 1.781 0 00-1.78 1.782v14.25a1.781 1.781 0 001.78 1.78h14.25a1.78 1.78 0 001.782-1.78V40.706l4.822-4.822-2.52-2.518zm-5.866 17.29H11.47V39.97h9.95l-4.607 4.606-2.303-2.303-2.518 2.519 3.562 3.562a1.781 1.781 0 002.519 0l4.084-4.084v6.387zm5.866 4.085l-3.265 3.265a1.73 1.73 0 00-.82-.225H9.688a1.781 1.781 0 00-1.78 1.782v14.25a1.781 1.781 0 001.78 1.78h14.25a1.78 1.78 0 001.782-1.78V62.08l4.822-4.822-2.52-2.518zm-5.866 17.29H11.47V61.344h9.95l-4.607 4.606-2.303-2.303-2.518 2.519 3.562 3.562a1.781 1.781 0 002.519 0l4.084-4.084v6.387zm8.907-53.437h44.53v3.562h-44.53v-3.562zm0 7.125h37.406v3.562H31.063V25.72zm40.968 0h3.563v3.562H72.03V25.72zm-40.969 14.25h44.532v3.562H31.063V39.97zm0 7.125H68.47v3.562H31.063v-3.562zm40.97 0h3.562v3.562H72.03v-3.562zm-40.97 35.625h8.907v3.562h-8.907V82.72zm0 7.125h8.907v3.562h-8.907v-3.562z" fill="#5200D9"/></svg>