<?xml version="1.0" encoding="utf-8"?><svg viewBox="0 0 148 67" xmlns="http://www.w3.org/2000/svg" xmlns:xlink="http://www.w3.org/1999/xlink"><style>:root>svg{display:none}:root>svg:target{display:block}</style><svg fill="none" viewBox="0 0 24 28" id="calendar" xmlns="http://www.w3.org/2000/svg"><path d="M21.332 27.333H2.665A2.667 2.667 0 0 1 0 24.667V6a2.667 2.667 0 0 1 2.666-2.667h2.667V.667H8v2.666h8V.667h2.666v2.666h2.667A2.667 2.667 0 0 1 23.999 6v18.667a2.667 2.667 0 0 1-2.667 2.666zm-18.667-16v13.334h18.667V11.333H2.665zm0-5.333v2.667h18.667V6H2.665z" fill="#5200D9"/></svg><svg fill="none" viewBox="0 0 20 20" id="letter" xmlns="http://www.w3.org/2000/svg"><path d="M16.667 16.667H3.333c-.92 0-1.666-.747-1.666-1.667V4.927a1.667 1.667 0 0 1 1.666-1.594h13.334c.92 0 1.666.746 1.666 1.667v10c0 .92-.746 1.667-1.666 1.667zM3.333 6.557V15h13.334V6.557L10 11 3.333 6.557zM4 5l6 4 6-4H4z" fill="#fff"/></svg><svg fill="none" viewBox="0 0 148 67" id="logo" xmlns="http://www.w3.org/2000/svg"><g clip-path="url(#ca)"><path d="M48.432 55.852c1.956 0 3.667-1.25 4.041-3.005l-1.32-.162c-.342 1.153-1.433 1.949-2.72 1.949-1.679 0-2.933-1.316-2.933-3.216-.017-1.884 1.27-3.2 2.949-3.2 1.254 0 2.379.796 2.688 1.982l1.304-.179C52.147 48.267 50.453 47 48.432 47c-2.476 0-4.285 1.852-4.285 4.418-.016 2.566 1.793 4.434 4.285 4.434zm8.042-.325h1.352v-6.984h2.966v-1.218h-7.3v1.218h2.982v6.984zM66.905 47c-1.352 0-2.411.585-3.014 1.575h-.147v-1.25h-1.352v11.938h1.352v-4.954h.147c.603.975 1.71 1.543 3.03 1.543 2.396 0 4.237-1.868 4.237-4.434S69.301 47 66.905 47zm-.146 1.218c1.76 0 3.047 1.364 3.047 3.2 0 1.803-1.287 3.216-3.047 3.216-1.776 0-3.063-1.413-3.063-3.216 0-1.803 1.287-3.2 3.063-3.2zm8.782 7.57c1.32 0 2.281-.52 2.868-1.463h.146v1.202h1.353v-5.44c0-1.869-1.353-3.07-3.487-3.07-2.07 0-3.422 1.104-3.422 2.842h1.369c-.016-1.024.798-1.625 2.037-1.625 1.352 0 2.15.715 2.15 1.82v.324l-2.28.276c-2.445.277-3.683 1.349-3.683 2.794 0 1.413 1.173 2.34 2.95 2.34zm.196-1.122c-1.108 0-1.793-.47-1.793-1.25 0-.764.652-1.413 2.33-1.624l2.281-.26v.73c0 1.381-1.14 2.404-2.818 2.404zm5.487.861h1.499l2.362-3.346h.163l2.363 3.346h1.499l-3.096-4.272 2.933-3.93h-1.45l-2.249 3.053h-.163l-2.248-3.053h-1.45l2.932 3.93-3.095 4.272zm13.02.325c2.575 0 4.416-1.835 4.416-4.434 0-2.583-1.84-4.418-4.415-4.418-2.59 0-4.416 1.835-4.416 4.418 0 2.599 1.825 4.434 4.416 4.434zm0-1.218c-1.791 0-3.062-1.348-3.062-3.216 0-1.852 1.27-3.2 3.063-3.2 1.776 0 3.063 1.348 3.063 3.2 0 1.868-1.287 3.216-3.063 3.216zm6.48.893h4.187c1.597 0 2.721-.974 2.721-2.371 0-1.04-.635-1.673-1.499-1.852v-.162a1.847 1.847 0 0 0 1.255-1.77c0-1.17-1.059-2.047-2.542-2.047h-4.122v8.202zm1.352-4.873v-2.176h2.623c.782 0 1.353.504 1.353 1.105 0 .6-.571 1.072-1.353 1.072h-2.623zm0 3.72v-2.55h2.607c.945 0 1.597.52 1.597 1.234 0 .715-.652 1.316-1.597 1.316h-2.607zm9.919 1.413c1.319 0 2.281-.52 2.867-1.462h.147v1.202h1.352v-5.44c0-1.869-1.352-3.07-3.486-3.07-2.07 0-3.422 1.104-3.422 2.842h1.369c-.017-1.024.798-1.625 2.036-1.625 1.353 0 2.151.715 2.151 1.82v.324l-2.281.276c-2.444.277-3.682 1.349-3.682 2.794 0 1.413 1.173 2.34 2.949 2.34zm.195-1.12c-1.108 0-1.792-.472-1.792-1.251 0-.764.652-1.413 2.33-1.624l2.281-.26v.73c0 1.381-1.141 2.404-2.819 2.404zm6.514.86h1.352v-3.54h4.807v3.54h1.352v-8.202h-1.352v3.443h-4.807v-3.443h-1.352v8.202zm10.008 0h1.646l4.366-6.27h.163v6.27h1.353v-8.202h-1.646l-4.383 6.286h-.147v-6.286h-1.352v8.202zm14.049.325c1.825 0 3.308-.844 3.959-2.241l-1.124-.569c-.505.975-1.58 1.592-2.819 1.592-1.662 0-2.867-1.105-3.063-2.761h7.283c.017-.179.017-.374.017-.536 0-2.518-1.825-4.337-4.334-4.337-2.542 0-4.367 1.82-4.367 4.32 0 2.632 1.874 4.532 4.448 4.532zm-3.031-5.165c.229-1.478 1.369-2.469 2.901-2.469 1.548 0 2.721.991 2.949 2.469h-5.85z" fill="#fff"/><path d="M7.594 30.599a7.969 7.969 0 0 0-4.06 1.115 7.325 7.325 0 0 0-2.8 2.98 6.79 6.79 0 0 0-.68 3.928 6.953 6.953 0 0 0 1.654 3.662L21.05 64.576a6.879 6.879 0 0 0 2.578 1.865 7.295 7.295 0 0 0 3.2.548 7.507 7.507 0 0 0 5.82-3.243l40.18-60.88.02-.03c.377-.544.255-1.624-.524-2.302a2.16 2.16 0 0 0-.74-.42 2.262 2.262 0 0 0-1.69.11 2.11 2.11 0 0 0-.716.562L28.655 43.86a1.751 1.751 0 0 1-.55.393 1.842 1.842 0 0 1-1.354.069 1.778 1.778 0 0 1-.593-.335L12.711 32.473C11.314 31.27 9.488 30.6 7.594 30.6z" fill="#5200D9"/><path d="M16.323 56.48c.408 0 .945-.08 1.336-.21v-1.09a3.83 3.83 0 0 1-.977.163c-.782 0-1.271-.552-1.271-1.332v-4.97h2.118V47.97h-2.118l.016-2.647h-1.059l-.31 2.647h-1.336v1.072h1.337v5.02c0 1.445.88 2.42 2.264 2.42zm3.383-.308h1.353v-4.418c0-1.624.863-2.729 2.101-2.729.31 0 .799.065 1.223.244v-1.251c-.245-.13-.636-.211-1.01-.211-.913 0-1.826.52-2.2 1.267h-.147v-1.105h-1.32v8.203zm7.227-9.762c.57 0 .962-.406.962-.974 0-.553-.391-.943-.962-.943-.57 0-.977.39-.977.942 0 .569.407.975.977.975zm-.684 9.762h1.352v-8.203H26.25v8.203zm8.504-8.528c-1.352 0-2.411.585-3.014 1.576h-.147v-1.25H30.24v11.938h1.352v-4.955h.147c.603.975 1.71 1.544 3.03 1.544 2.395 0 4.237-1.868 4.237-4.435 0-2.566-1.858-4.418-4.253-4.418zm-.147 1.219c1.76 0 3.047 1.364 3.047 3.2 0 1.802-1.287 3.215-3.047 3.215-1.776 0-3.063-1.413-3.063-3.216 0-1.802 1.288-3.2 3.063-3.2z" fill="#fff"/></g><defs><clipPath id="ca"><path fill="#fff" d="M0 0h148v67H0z"/></clipPath></defs></svg><svg fill="none" viewBox="0 0 16 16" id="minus" xmlns="http://www.w3.org/2000/svg"><path d="M3.333 8.667V7.333h9.334v1.334H3.333z" fill="#11002D"/></svg><svg fill="none" viewBox="0 0 16 16" id="plus" xmlns="http://www.w3.org/2000/svg"><path d="M8.667 8.667v4H7.333v-4h-4V7.333h4v-4h1.334v4h4v1.334h-4z" fill="#11002D"/></svg><svg fill="none" viewBox="0 0 8 4" id="product-icon" xmlns="http://www.w3.org/2000/svg"><path d="M4 3.667 7.333.333H.667L4 3.667z" fill="#fff"/></svg><svg fill="none" viewBox="0 0 14 8" id="select-person" xmlns="http://www.w3.org/2000/svg"><path d="M7 7.333 13.667.667H.333L7 7.333z" fill="#5200D9"/></svg></svg>