<svg width="49" height="49" fill="none" xmlns="http://www.w3.org/2000/svg"><path fill-rule="evenodd" clip-rule="evenodd" d="M17.532.9h14.736C45.716.9 48.9 4.084 48.9 17.532v14.736c0 13.448-3.184 16.632-16.632 16.632H17.532C4.084 48.9.9 45.716.9 32.268V17.532C.9 4.084 4.084.9 17.532.9z" fill="#4680C2"/><path fill-rule="evenodd" clip-rule="evenodd" d="M40.194 17.43c.237-.744 0-1.287-1.05-1.287h-3.489c-.88 0-1.287.475-1.524.983 0 0-1.796 4.336-4.302 7.147-.813.813-1.186 1.084-1.626 1.084-.237 0-.542-.27-.542-1.016v-6.944c0-.88-.271-1.287-1.017-1.287h-5.487c-.542 0-.88.406-.88.813 0 .847 1.252 1.05 1.388 3.42v5.15c0 1.118-.203 1.32-.644 1.32-1.185 0-4.065-4.369-5.792-9.348-.339-.983-.678-1.355-1.558-1.355h-3.523c-1.017 0-1.186.474-1.186.982 0 .915 1.186 5.521 5.522 11.619 2.879 4.166 6.978 6.402 10.67 6.402 2.236 0 2.507-.508 2.507-1.355v-3.15c0-1.016.203-1.186.914-1.186.508 0 1.423.271 3.49 2.27 2.37 2.371 2.777 3.455 4.098 3.455h3.49c1.016 0 1.49-.508 1.219-1.49-.305-.983-1.457-2.405-2.947-4.1-.813-.948-2.033-1.998-2.405-2.506-.509-.677-.373-.948 0-1.558-.034 0 4.234-6.03 4.674-8.062z" fill="#fff"/></svg>