<svg width="48" height="48" fill="none" xmlns="http://www.w3.org/2000/svg"><path d="M0 24C0 10.745 10.745 0 24 0s24 10.745 24 24-10.745 24-24 24S0 37.255 0 24z" fill="red"/><path d="M36.265 18.073a3.253 3.253 0 00-2.263-2.324C32.005 15.2 24 15.2 24 15.2s-8.005 0-10.002.55a3.248 3.248 0 00-2.263 2.323C11.2 20.123 11.2 24.4 11.2 24.4s0 4.277.535 6.327a3.253 3.253 0 002.263 2.324C15.995 33.6 24 33.6 24 33.6s8.005 0 10.002-.55a3.248 3.248 0 002.263-2.323c.535-2.05.535-6.327.535-6.327s0-4.277-.535-6.327z" fill="#fff"/><path d="M21.6 28.8v-8l6.4 4-6.4 4z" fill="red"/></svg>