<svg width="112" height="112" viewBox="0 0 112 112" fill="none" xmlns="http://www.w3.org/2000/svg">
<path d="M109.438 64.9062H95.1875C94.7151 64.9062 94.262 65.0939 93.928 65.428C93.5939 65.762 93.4062 66.2151 93.4062 66.6875V70.25H90.5812L86.1281 65.7969L91.1031 60.8218C91.437 60.4878 91.6246 60.0348 91.6246 59.5625C91.6246 59.0902 91.437 58.6372 91.1031 58.3032L83.9781 51.1782C83.6441 50.8442 83.1911 50.6566 82.7188 50.6566C82.2464 50.6566 81.7934 50.8442 81.4594 51.1782L73.0751 59.5625H63.125C62.6526 59.5626 62.1996 59.7503 61.8657 60.0844L60.6063 61.3438H31.0625V64.9062H57.0438L53.4813 68.4688H31.0625V72.0312H49.9188L49.3969 72.5532C49.0628 72.8871 48.8751 73.3401 48.875 73.8125V83.7626L44.0532 88.5844C43.8048 88.8332 43.6356 89.1499 43.5669 89.4946L41.7856 98.4009C41.728 98.6889 41.7426 98.9867 41.8279 99.2678C41.9133 99.5489 42.0668 99.8045 42.2749 100.012C42.483 100.219 42.7391 100.372 43.0204 100.456C43.3018 100.541 43.5997 100.554 43.8875 100.496L52.7938 98.7144C53.1385 98.6456 53.4552 98.4765 53.704 98.2281L60.7773 91.1547C61.5217 91.4632 62.3192 91.623 63.125 91.625H73.0751L77.8969 96.4468C78.2309 96.7809 78.6839 96.9687 79.1562 96.9688V107.656H4.34375V4.34375H79.1562V47.0938H82.7188V2.5625C82.7188 2.09008 82.5311 1.63702 82.197 1.30297C81.863 0.968917 81.4099 0.78125 80.9375 0.78125H2.5625C2.09008 0.78125 1.63702 0.968917 1.30297 1.30297C0.968917 1.63702 0.78125 2.09008 0.78125 2.5625V109.438C0.78125 109.91 0.968917 110.363 1.30297 110.697C1.63702 111.031 2.09008 111.219 2.5625 111.219H80.9375C81.4099 111.219 81.863 111.031 82.197 110.697C82.5311 110.363 82.7188 109.91 82.7188 109.438V96.9688H93.4062V98.75C93.4062 99.2224 93.5939 99.6755 93.928 100.01C94.262 100.344 94.7151 100.531 95.1875 100.531H109.438C109.91 100.531 110.363 100.344 110.697 100.01C111.031 99.6755 111.219 99.2224 111.219 98.75V66.6875C111.219 66.2151 111.031 65.762 110.697 65.428C110.363 65.0939 109.91 64.9062 109.438 64.9062ZM82.7188 54.9562L87.3251 59.5625L67.7313 79.1562H63.125C61.9914 79.1575 60.8796 79.4678 59.9092 80.0538C58.9389 80.6398 58.1466 81.4792 57.6177 82.4819C57.0888 83.4845 56.8433 84.6124 56.9076 85.7441C56.9719 86.8759 57.3435 87.9687 57.9825 88.905L52.4375 94.4501L47.8312 89.8438L82.7188 54.9562ZM52.4375 74.5499L63.8624 63.125H69.5126L52.4375 80.2001V74.5499ZM46.4062 93.4561L48.8251 95.8751L45.797 96.4807L46.4062 93.4561ZM79.8937 93.4062L75.0718 88.5844C74.7379 88.2503 74.2849 88.0626 73.8125 88.0625H63.125C62.4164 88.0625 61.7368 87.781 61.2357 87.2799C60.7346 86.7789 60.4531 86.0993 60.4531 85.3906C60.4531 84.682 60.7346 84.0024 61.2357 83.5013C61.7368 83.0003 62.4164 82.7188 63.125 82.7188H79.1562V79.1562H72.7687L83.6094 68.3156L88.5844 73.2906C88.9184 73.6247 89.3714 73.8124 89.8438 73.8125H93.4062V93.4062H79.8937ZM107.656 96.9688H96.9688V68.4688H107.656V96.9688Z" fill="#5200D9"/>
<path d="M23.9375 79.1563H9.6875C9.21508 79.1563 8.76202 79.344 8.42797 79.678C8.09392 80.0121 7.90625 80.4651 7.90625 80.9376V95.1876C7.90625 95.66 8.09392 96.1131 8.42797 96.4471C8.76202 96.7812 9.21508 96.9688 9.6875 96.9688H23.9375C24.4099 96.9688 24.863 96.7812 25.197 96.4471C25.5311 96.1131 25.7188 95.66 25.7188 95.1876V83.4563L30.5406 78.6344L28.0219 76.1157L24.7569 79.3808C24.5067 79.239 24.225 79.1618 23.9375 79.1563ZM22.1562 93.4063H11.4688V82.7188H21.4188L16.8125 87.3251L14.5093 85.022L11.9907 87.5407L15.5532 91.1032C15.8872 91.4371 16.3402 91.6247 16.8125 91.6247C17.2848 91.6247 17.7378 91.4371 18.0718 91.1032L22.1562 87.0188V93.4063ZM28.0219 11.9907L24.7569 15.2558C24.5067 15.114 24.225 15.0368 23.9375 15.0313H9.6875C9.21508 15.0313 8.76202 15.219 8.42797 15.553C8.09392 15.8871 7.90625 16.3401 7.90625 16.8126V31.0626C7.90625 31.535 8.09392 31.9881 8.42797 32.3221C8.76202 32.6562 9.21508 32.8438 9.6875 32.8438H23.9375C24.4099 32.8438 24.863 32.6562 25.197 32.3221C25.5311 31.9881 25.7188 31.535 25.7188 31.0626V19.3313L30.5406 14.5094L28.0219 11.9907ZM22.1562 29.2813H11.4688V18.5938H21.4188L16.8125 23.2001L14.5093 20.897L11.9907 23.4157L15.5532 26.9782C15.8872 27.3121 16.3402 27.4997 16.8125 27.4997C17.2848 27.4997 17.7378 27.3121 18.0718 26.9782L22.1562 22.8938V29.2813ZM28.0219 33.3657L24.7569 36.6308C24.5067 36.489 24.225 36.4118 23.9375 36.4063H9.6875C9.21508 36.4063 8.76202 36.594 8.42797 36.928C8.09392 37.2621 7.90625 37.7151 7.90625 38.1876V52.4376C7.90625 52.91 8.09392 53.3631 8.42797 53.6971C8.76202 54.0312 9.21508 54.2188 9.6875 54.2188H23.9375C24.4099 54.2188 24.863 54.0312 25.197 53.6971C25.5311 53.3631 25.7188 52.91 25.7188 52.4376V40.7063L30.5406 35.8844L28.0219 33.3657ZM22.1562 50.6563H11.4688V39.9688H21.4188L16.8125 44.5751L14.5093 42.272L11.9907 44.7907L15.5532 48.3532C15.8872 48.6871 16.3402 48.8747 16.8125 48.8747C17.2848 48.8747 17.7378 48.6871 18.0718 48.3532L22.1562 44.2687V50.6563ZM28.0219 54.7407L24.7569 58.0058C24.5067 57.864 24.225 57.7868 23.9375 57.7813H9.6875C9.21508 57.7813 8.76202 57.969 8.42797 58.303C8.09392 58.6371 7.90625 59.0901 7.90625 59.5626V73.8126C7.90625 74.285 8.09392 74.7381 8.42797 75.0721C8.76202 75.4062 9.21508 75.5938 9.6875 75.5938H23.9375C24.4099 75.5938 24.863 75.4062 25.197 75.0721C25.5311 74.7381 25.7188 74.285 25.7188 73.8126V62.0813L30.5406 57.2594L28.0219 54.7407ZM22.1562 72.0313H11.4688V61.3438H21.4188L16.8125 65.9501L14.5093 63.647L11.9907 66.1657L15.5532 69.7282C15.8872 70.0621 16.3402 70.2497 16.8125 70.2497C17.2848 70.2497 17.7378 70.0621 18.0718 69.7282L22.1562 65.6438V72.0313ZM31.0625 18.5938H75.5938V22.1563H31.0625V18.5938ZM31.0625 25.7188H68.4688V29.2813H31.0625V25.7188ZM72.0312 25.7188H75.5938V29.2813H72.0312V25.7188ZM31.0625 39.9688H75.5938V43.5313H31.0625V39.9688ZM31.0625 47.0938H68.4688V50.6563H31.0625V47.0938ZM72.0312 47.0938H75.5938V50.6563H72.0312V47.0938ZM31.0625 82.7188H39.9688V86.2813H31.0625V82.7188ZM31.0625 89.8438H39.9688V93.4063H31.0625V89.8438Z" fill="#5200D9"/>
</svg>
