<svg width="114" height="114" viewBox="0 0 114 114" fill="none" xmlns="http://www.w3.org/2000/svg">
<path d="M36.9565 17.6949C35.9723 17.6949 35.1645 16.8871 35.1645 15.903C35.1645 14.9188 35.9723 14.136 36.9565 14.136H53.0118C53.9959 14.136 54.8037 14.9188 54.8037 15.903C54.8037 16.8871 53.9968 17.6949 53.0118 17.6949H36.9565ZM36.9565 42.7874C36.4817 42.7855 36.0268 42.596 35.6912 42.2602C35.3555 41.9243 35.1662 41.4694 35.1645 40.9946C35.1645 40.0104 35.9723 39.2276 36.9565 39.2276H68.5372C69.5213 39.2276 70.3291 40.0104 70.3291 40.9946C70.3291 41.9787 69.5222 42.7874 68.5372 42.7874H36.9565ZM36.9565 34.7602C35.9723 34.7602 35.1645 33.9782 35.1645 32.9932C35.1664 32.5185 35.3558 32.0638 35.6915 31.7282C36.0271 31.3925 36.4818 31.2031 36.9565 31.2013H77.0444C78.0285 31.2013 78.8114 32.0082 78.8114 32.9932C78.8114 33.9782 78.0285 34.7602 77.0444 34.7602H36.9565ZM36.9565 26.7579C35.9723 26.7579 35.1645 25.9501 35.1645 24.966C35.1645 23.9818 35.9723 23.199 36.9565 23.199H77.0444C78.0285 23.199 78.8114 23.9818 78.8114 24.966C78.8114 25.9501 78.0285 26.7579 77.0444 26.7579H36.9565ZM21.0277 95.9007C22.0118 95.9007 22.8196 96.6836 22.8196 97.6677C22.8196 98.6518 22.0118 99.4605 21.0277 99.4605H7.67362C5.57798 99.4605 3.66047 98.577 2.24616 97.1877C2.22122 97.1627 2.19539 97.112 2.14552 97.087C0.832734 95.6985 0 93.8309 0 91.7602V62.2502C0 58.5149 1.53989 55.1323 3.98911 52.6582C6.46238 50.2099 9.84497 48.67 13.582 48.67H100.42C104.156 48.67 107.539 50.2099 110.013 52.6582C112.462 55.1323 114.002 58.5149 114.002 62.2502V91.7611C114.002 93.8817 113.118 95.8001 111.73 97.1885C111.706 97.2393 111.653 97.2643 111.629 97.2892C110.241 98.6278 108.373 99.4605 106.304 99.4605H93.0258C92.0416 99.4605 91.2321 98.6527 91.2321 97.6677C91.2321 96.6827 92.0407 95.9007 93.0258 95.9007H106.304C107.413 95.9007 108.398 95.4456 109.156 94.7652C109.156 94.7402 109.18 94.7144 109.231 94.6645C110.003 93.8949 110.438 92.8511 110.443 91.7611V62.2502C110.443 59.4991 109.307 57 107.49 55.1822C105.673 53.3645 103.173 52.2289 100.421 52.2289H13.5811C10.8291 52.2289 8.33002 53.3645 6.51225 55.1822C4.69448 57 3.55983 59.4991 3.55983 62.2502V91.7611C3.55415 92.8159 3.96177 93.8309 4.69537 94.5888L4.77108 94.6645C5.529 95.4215 6.56391 95.9016 7.67452 95.9016L21.0277 95.9007Z" fill="#5200D9"/>
<path d="M95.8758 57.0249C97.5929 57.0249 99.1559 57.7312 100.267 58.8676C100.318 58.8925 100.342 58.9433 100.395 58.9682C101.454 60.1038 102.11 61.6196 102.11 63.2584C102.109 64.0798 101.946 64.8929 101.63 65.6511C101.313 66.4093 100.851 67.0977 100.268 67.6768C99.1328 68.8123 97.5938 69.4945 95.8767 69.4945C94.1595 69.4945 92.5938 68.8123 91.4583 67.6768C90.2979 66.4984 89.6453 64.9122 89.6405 63.2584C89.6405 61.543 90.3468 59.9773 91.4583 58.8667C92.0372 58.2842 92.7254 57.8216 93.4835 57.5056C94.2415 57.1895 95.0545 57.0262 95.8758 57.0249ZM97.7683 61.3667C97.2883 60.8875 96.6079 60.5847 95.8758 60.5847C95.1437 60.5847 94.4615 60.8875 93.9814 61.3667C93.5014 61.8708 93.1985 62.5281 93.1985 63.2593C93.1985 63.9914 93.5014 64.6736 93.9814 65.1527C94.2293 65.4026 94.5245 65.6006 94.8497 65.735C95.175 65.8694 95.5238 65.9376 95.8758 65.9356C96.5852 65.9344 97.2654 65.6531 97.7683 65.1527C98.0179 64.9049 98.2156 64.6098 98.3499 64.2847C98.4841 63.9596 98.5523 63.611 98.5503 63.2593C98.5503 62.553 98.2715 61.9216 97.8449 61.4424L97.7683 61.3667Z" fill="#5200D9"/>
<path fill-rule="evenodd" clip-rule="evenodd" d="M16.3581 61.4932C17.3423 61.4932 18.151 62.2751 18.151 63.2593C18.151 64.2434 17.3432 65.0521 16.3581 65.0521C15.3731 65.0521 14.5911 64.2443 14.5911 63.2593C14.5911 62.2742 15.3731 61.4932 16.3581 61.4932ZM32.034 61.4932C33.0182 61.4932 33.8268 62.2751 33.8268 63.2593C33.8268 64.2434 33.019 65.0521 32.034 65.0521C31.0499 65.0521 30.267 64.2443 30.267 63.2593C30.267 62.2742 31.0499 61.4932 32.034 61.4932ZM24.2081 61.4932C25.1931 61.4932 25.9751 62.2751 25.9751 63.2593C25.9751 64.2434 25.1931 65.0521 24.2081 65.0521C23.224 65.0521 22.4162 64.2443 22.4162 63.2593C22.4162 62.2742 23.224 61.4932 24.2081 61.4932Z" fill="#5200D9"/>
<path d="M88.3776 78.1791C88.2262 77.2199 88.9075 76.3105 89.8917 76.1591C90.85 76.0327 91.7602 76.7149 91.8867 77.6741L96.3541 108.219C96.3799 108.446 96.4048 108.674 96.4048 108.875C96.4048 110.212 95.85 111.398 94.9665 112.308C94.111 113.179 92.9936 113.747 91.7851 113.923C91.5359 113.974 91.2824 113.999 91.0281 113.999H22.971C22.719 113.999 22.4669 113.974 22.214 113.923H22.1383C20.9612 113.718 19.8764 113.154 19.0327 112.308C18.1501 111.398 17.5943 110.212 17.5943 108.875C17.5943 108.673 17.6192 108.446 17.6451 108.219L22.0875 77.6741C22.1602 77.2082 22.412 76.7892 22.7891 76.5062C23.1662 76.2233 23.6389 76.0987 24.1066 76.1591C24.5731 76.2308 24.993 76.4824 25.2762 76.86C25.5594 77.2376 25.6834 77.7111 25.6215 78.1791L21.1532 108.725V108.876C21.1532 109.229 21.3296 109.557 21.5825 109.835C21.8604 110.137 22.2638 110.339 22.6682 110.414H22.719C22.7938 110.414 22.8704 110.439 22.971 110.439H91.0281C91.1288 110.439 91.2054 110.414 91.2802 110.414C91.7088 110.341 92.105 110.139 92.4157 109.835C92.6678 109.556 92.845 109.229 92.845 108.876C92.845 108.825 92.845 108.75 92.8209 108.725L88.3776 78.1791Z" fill="#5200D9"/>
<path d="M16.7874 86.4343C17.7715 86.4343 18.5535 87.2421 18.5535 88.2271C18.5535 89.2121 17.7715 89.9941 16.7874 89.9941C15.3232 89.9941 13.9855 89.3876 13.0013 88.4284C12.0421 87.4442 11.4356 86.1065 11.4356 84.6664V81.4859C11.4384 80.0743 12.0016 78.7215 13.0013 77.7248H13.0263C13.5163 77.2252 14.1017 76.8291 14.7479 76.5601C15.394 76.2912 16.0875 76.1548 16.7874 76.1591H97.2892C98.7534 76.1591 100.091 76.7398 101.051 77.7248C101.549 78.2163 101.944 78.8021 102.213 79.4478C102.481 80.0936 102.619 80.7865 102.617 81.4859V84.6664C102.619 85.366 102.482 86.0591 102.213 86.705C101.944 87.351 101.549 87.9368 101.051 88.4284C100.56 88.9261 99.9736 89.3209 99.3277 89.5897C98.6818 89.8585 97.9888 89.996 97.2892 89.9941C96.305 89.9941 95.4972 89.2112 95.4972 88.2271C95.4972 87.243 96.3042 86.4343 97.2892 86.4343C97.758 86.4285 98.2078 86.2485 98.5512 85.9293V85.9043C98.854 85.6015 99.0553 85.1473 99.0553 84.6673V81.4868C99.0553 81.0068 98.8531 80.5535 98.5512 80.2498V80.2248C98.2077 79.906 97.7578 79.7263 97.2892 79.7207H16.7874C16.2824 79.7207 15.8282 79.9229 15.5254 80.2248V80.2498C15.1967 80.5535 14.9954 81.0068 14.9954 81.4868V84.6673C14.9954 85.1473 15.1976 85.6015 15.5254 85.9043V85.9293C15.8273 86.2321 16.2824 86.4343 16.7874 86.4343ZM25.6473 43.5453C25.6473 44.5295 24.8395 45.3373 23.8545 45.3373C22.8695 45.3373 22.0875 44.5295 22.0875 43.5453V4.77108C22.0861 4.14751 22.2081 3.52983 22.4464 2.95359C22.6847 2.37734 23.0346 1.85391 23.476 1.41342L23.6024 1.28695C24.461 0.504094 25.5965 0 26.8595 0H75.3522C75.9673 0.000465166 76.5764 0.12024 77.1459 0.352688C77.7248 0.579797 78.2316 0.907547 78.6858 1.33683L90.3735 12.3432C90.8776 12.8223 91.2819 13.3531 91.534 13.9579C91.786 14.5644 91.9134 15.1958 91.9134 15.8763V43.5435C91.9134 44.5277 91.1305 45.3355 90.1464 45.3355C89.1622 45.3355 88.3553 44.5277 88.3553 43.5435V18.427L80.0734 18.452V18.4769H80.0494V18.452C77.6518 18.452 75.834 17.6183 74.621 16.3065C73.3839 14.9678 72.8032 13.2267 72.8032 11.359H72.7792V3.55894H26.8595C26.5566 3.55894 26.2538 3.68541 26.0517 3.86264L26.0009 3.91341C25.8881 4.02598 25.7988 4.15986 25.7383 4.30725C25.6777 4.45465 25.6471 4.61262 25.6482 4.77197L25.6473 43.5453ZM87.8976 14.893L76.3363 4.01316V11.3599C76.3363 12.3441 76.6392 13.2525 77.2198 13.8831C77.8005 14.5145 78.7348 14.918 80.0476 14.918H80.0716L87.8976 14.893Z" fill="#5200D9"/>
</svg>
