<svg width="90" height="114" viewBox="0 0 90 114" fill="none" xmlns="http://www.w3.org/2000/svg">
<path d="M80.6969 0H9.30308C4.44584 0 0.493911 3.9517 0.493911 8.80917V105.191C0.493911 110.048 4.44584 114 9.30308 114H80.6967C85.5539 114 89.5059 110.048 89.5059 105.191V8.80917C89.5061 3.9517 85.5542 0 80.6969 0ZM3.83376 8.80917C3.83376 5.79351 6.28743 3.33984 9.30308 3.33984H80.6967C83.7126 3.33984 86.166 5.79351 86.166 8.80917V42.8359H3.83376V8.80917ZM86.1663 105.191C86.1663 108.206 83.7126 110.66 80.6969 110.66H9.30308C6.28721 110.66 3.83376 108.206 3.83376 105.191V46.176H86.1663V105.191Z" fill="#5200D9"/>
<path d="M64.6329 10.709H14.6577C12.7527 10.709 11.203 12.2589 11.203 14.1639V32.0123C11.203 33.9173 12.7527 35.467 14.6577 35.467H18.2274C19.1496 35.467 19.8973 34.7196 19.8973 33.7971C19.8973 32.8746 19.1496 32.1272 18.2274 32.1272H14.6577C14.6427 32.1272 14.6277 32.1242 14.6138 32.1184C14.5998 32.1127 14.5872 32.1042 14.5765 32.0935C14.5658 32.0829 14.5574 32.0702 14.5516 32.0563C14.5458 32.0423 14.5428 32.0274 14.5428 32.0123V14.1639C14.5428 14.1005 14.5943 14.0488 14.6577 14.0488H64.6329C65.5554 14.0488 66.3028 13.3014 66.3028 12.3789C66.3028 11.4564 65.5554 10.709 64.6329 10.709Z" fill="#5200D9"/>
<path d="M75.3425 10.709H71.7729C70.8504 10.709 70.1029 11.4564 70.1029 12.3789C70.1029 13.3014 70.8504 14.0491 71.7726 14.0491H75.3422C75.4055 14.0491 75.4571 14.1005 75.4571 14.1642V32.0125C75.4571 32.043 75.445 32.0722 75.4234 32.0937C75.4019 32.1152 75.3727 32.1273 75.3422 32.1274H25.3671C24.4448 32.1274 23.6971 32.8749 23.6971 33.7973C23.6971 34.7198 24.4448 35.4672 25.3671 35.4672H75.3425C77.2475 35.4672 78.7972 33.9176 78.7972 32.0125V14.1639C78.7972 12.2589 77.2475 10.709 75.3425 10.709ZM36.0759 53.5451C32.2026 53.5451 29.0516 56.6962 29.0516 60.5697C29.0516 64.4433 32.2026 67.5943 36.0759 67.5943C39.9493 67.5943 43.1003 64.4433 43.1003 60.5697C43.1003 56.6962 39.9493 53.5451 36.0759 53.5451ZM36.0759 64.2545C34.0442 64.2545 32.3914 62.6015 32.3914 60.5697C32.3914 58.538 34.0442 56.885 36.0759 56.885C38.1077 56.885 39.7604 58.538 39.7604 60.5697C39.7604 62.6015 38.1077 64.2545 36.0759 64.2545ZM36.0759 71.3939C32.2026 71.3939 29.0516 74.545 29.0516 78.4183C29.0516 82.2916 32.2026 85.4429 36.0759 85.4429C39.9493 85.4429 43.1003 82.2918 43.1003 78.4183C43.1003 74.545 39.9493 71.3939 36.0759 71.3939ZM36.0759 82.1028C34.0442 82.1028 32.3914 80.4498 32.3914 78.4181C32.3914 76.3863 34.0442 74.7336 36.0759 74.7336C38.1077 74.7336 39.7604 76.3863 39.7604 78.4181C39.7604 80.4498 38.1077 82.1028 36.0759 82.1028ZM36.0759 89.2423C32.2026 89.2423 29.0516 92.3933 29.0516 96.2666C29.0516 100.14 32.2026 103.291 36.0759 103.291C39.9493 103.291 43.1003 100.14 43.1003 96.2666C43.1003 92.3933 39.9493 89.2423 36.0759 89.2423ZM36.0759 99.9512C34.0442 99.9512 32.3914 98.2982 32.3914 96.2664C32.3914 94.2347 34.0442 92.5819 36.0759 92.5819C38.1077 92.5819 39.7604 94.2347 39.7604 96.2664C39.7604 98.2982 38.1077 99.9512 36.0759 99.9512ZM53.9243 53.5451C50.051 53.5451 46.8997 56.6962 46.8997 60.5697C46.8997 64.4433 50.0507 67.5943 53.9243 67.5943C57.7976 67.5943 60.9486 64.4433 60.9486 60.5697C60.9486 56.6962 57.7976 53.5451 53.9243 53.5451ZM53.9243 64.2545C51.8925 64.2545 50.2395 62.6015 50.2395 60.5697C50.2395 58.538 51.8925 56.885 53.9243 56.885C55.956 56.885 57.6088 58.538 57.6088 60.5697C57.6088 62.6015 55.956 64.2545 53.9243 64.2545ZM53.9243 71.3939C50.051 71.3939 46.8997 74.545 46.8997 78.4183C46.8997 82.2916 50.0507 85.4429 53.9243 85.4429C57.7976 85.4429 60.9486 82.2918 60.9486 78.4183C60.9486 74.545 57.7976 71.3939 53.9243 71.3939ZM53.9243 82.1028C51.8925 82.1028 50.2395 80.4498 50.2395 78.4181C50.2395 76.3863 51.8925 74.7336 53.9243 74.7336C55.956 74.7336 57.6088 76.3863 57.6088 78.4181C57.6088 80.4498 55.956 82.1028 53.9243 82.1028ZM53.9243 89.2423C50.051 89.2423 46.8997 92.3933 46.8997 96.2666C46.8997 100.14 50.0507 103.291 53.9243 103.291C57.7976 103.291 60.9486 100.14 60.9486 96.2666C60.9486 92.3933 57.7976 89.2423 53.9243 89.2423ZM53.9243 99.9512C51.8925 99.9512 50.2395 98.2982 50.2395 96.2664C50.2395 94.2347 51.8925 92.5819 53.9243 92.5819C55.956 92.5819 57.6088 94.2347 57.6088 96.2664C57.6088 98.2982 55.956 99.9512 53.9243 99.9512ZM18.2276 53.5451C14.3543 53.5451 11.203 56.6962 11.203 60.5697C11.203 64.4433 14.3543 67.5943 18.2276 67.5943C22.1009 67.5943 25.2519 64.4433 25.2519 60.5697C25.2519 56.6962 22.1009 53.5451 18.2276 53.5451ZM18.2276 64.2545C16.1958 64.2545 14.5428 62.6015 14.5428 60.5697C14.5428 58.538 16.1958 56.885 18.2276 56.885C20.2593 56.885 21.9121 58.538 21.9121 60.5697C21.9121 62.6015 20.2593 64.2545 18.2276 64.2545ZM18.2276 71.3939C14.3543 71.3939 11.203 74.545 11.203 78.4183C11.203 82.2916 14.3543 85.4429 18.2276 85.4429C22.1009 85.4429 25.2519 82.2918 25.2519 78.4183C25.2519 74.545 22.1009 71.3939 18.2276 71.3939ZM18.2276 82.1028C16.1958 82.1028 14.5428 80.4498 14.5428 78.4181C14.5428 76.3863 16.1958 74.7336 18.2276 74.7336C20.2593 74.7336 21.9121 76.3863 21.9121 78.4181C21.9121 80.4498 20.2593 82.1028 18.2276 82.1028ZM18.2276 89.2423C14.3543 89.2423 11.203 92.3933 11.203 96.2666C11.203 100.14 14.3543 103.291 18.2276 103.291C22.1009 103.291 25.2519 100.14 25.2519 96.2666C25.2519 92.3933 22.1009 89.2423 18.2276 89.2423ZM18.2276 99.9512C16.1958 99.9512 14.5428 98.2982 14.5428 96.2664C14.5428 94.2347 16.1958 92.5819 18.2276 92.5819C20.2593 92.5819 21.9121 94.2347 21.9121 96.2664C21.9121 98.2982 20.2593 99.9512 18.2276 99.9512ZM71.7726 53.5451C67.8993 53.5451 64.748 56.6962 64.748 60.5697C64.748 64.4433 67.8991 67.5943 71.7726 67.5943C75.646 67.5943 78.797 64.4433 78.797 60.5697C78.797 56.6962 75.646 53.5451 71.7726 53.5451ZM71.7726 64.2545C69.7409 64.2545 68.0879 62.6015 68.0879 60.5697C68.0879 58.538 69.7409 56.885 71.7726 56.885C73.8044 56.885 75.4571 58.538 75.4571 60.5697C75.4571 62.6015 73.8044 64.2545 71.7726 64.2545ZM71.7726 71.3939C67.8993 71.3939 64.748 74.545 64.748 78.4183V96.2666C64.748 100.14 67.8991 103.291 71.7726 103.291C75.646 103.291 78.797 100.14 78.797 96.2666V78.4183C78.797 74.545 75.646 71.3939 71.7726 71.3939ZM75.4571 96.2664C75.4571 98.2982 73.8041 99.9512 71.7726 99.9512C69.7409 99.9512 68.0879 98.2982 68.0879 96.2664V78.4181C68.0879 76.3863 69.7409 74.7336 71.7726 74.7336C73.8041 74.7336 75.4571 76.3863 75.4571 78.4181V96.2664Z" fill="#5200D9"/>
</svg>
