<svg width="114" height="114" viewBox="0 0 114 114" fill="none" xmlns="http://www.w3.org/2000/svg">
<path d="M113.763 66.6371H109.974V51.481C109.968 46.2529 105.731 42.0151 100.501 42.0085H95.127L100.243 33.1445C100.997 31.838 101.201 30.2855 100.811 28.8284C100.617 28.107 100.283 27.431 99.8278 26.8388C99.3727 26.2466 98.8054 25.7499 98.1582 25.3771L55.4884 0.748423C52.7688 -0.80105 49.3099 0.128681 47.7337 2.83238L25.1244 42.0085H9.56502C4.3357 42.0151 0.099099 46.2529 0.0924683 51.481V104.527C0.099099 109.757 4.3357 113.993 9.56502 114H100.501C105.731 113.993 109.968 109.757 109.974 104.527V89.3712H113.763V66.6371ZM96.967 31.2486L86.3744 49.587H52.1174L72.2122 14.7716L96.2729 28.6621C96.7027 28.918 97.0156 29.3314 97.1452 29.8144C97.2748 30.2975 97.211 30.812 96.967 31.2486ZM38.991 49.587L62.3764 9.0935L68.9314 12.8825L47.7448 49.587H38.991ZM51.0287 4.72737C51.28 4.29345 51.6931 3.97692 52.1775 3.8472C52.6618 3.71748 53.1779 3.78516 53.6124 4.0354L59.0934 7.19923L34.6164 49.5865H25.1225L51.0287 4.72737ZM106.185 104.528C106.185 107.667 103.64 110.211 100.501 110.211H9.56502C6.42629 110.211 3.88149 107.667 3.88149 104.528V51.4815C3.88149 48.3428 6.42629 45.798 9.56502 45.798H22.9367L20.7426 49.587H11.4595V53.376H98.607V49.587H90.7488L92.9384 45.798H100.501C103.64 45.798 106.185 48.3428 106.185 51.4815V66.6376H85.3454C80.1161 66.644 75.8795 70.8815 75.8729 76.1101V79.8991C75.8795 85.1285 80.1161 89.3651 85.3454 89.3717H106.185V104.528ZM109.974 85.5827H85.3454C82.2067 85.5827 79.6619 83.0379 79.6619 79.8991V76.1101C79.6619 72.9714 82.2067 70.4266 85.3454 70.4266H109.974V85.5827Z" fill="#5200D9"/>
<path d="M81.5564 78.0041C81.5564 81.1431 84.1012 83.6876 87.2399 83.6876C90.3787 83.6876 92.9235 81.1431 92.9235 78.0041C92.9235 74.8651 90.3787 72.3206 87.2399 72.3206C84.1012 72.3206 81.5564 74.8656 81.5564 78.0041ZM87.2399 76.1096C87.7424 76.1096 88.2243 76.3092 88.5796 76.6645C88.9349 77.0198 89.1346 77.5017 89.1346 78.0042C89.1346 78.5067 88.9349 78.9886 88.5796 79.3439C88.2243 79.6992 87.7424 79.8988 87.2399 79.8988C86.7375 79.8988 86.2556 79.6992 85.9003 79.3439C85.545 78.9886 85.3454 78.5068 85.3454 78.0043C85.3454 77.5019 85.545 77.02 85.9003 76.6647C86.2556 76.3094 86.7375 76.1096 87.2399 76.1096Z" fill="#5200D9"/>
</svg>
