<svg width="48" height="48" viewBox="0 0 48 48" fill="none" xmlns="http://www.w3.org/2000/svg">
<path d="M24 48C37.2548 48 48 37.2548 48 24C48 10.7452 37.2548 0 24 0C10.7452 0 0 10.7452 0 24C0 37.2548 10.7452 48 24 48Z" fill="url(#paint0_linear_1_1831)"/>
<path d="M8.93825 25.1739C11.7439 23.6286 14.8757 22.3387 17.8019 21.0423C22.8361 18.9189 27.8903 16.8323 32.9955 14.8897C33.9887 14.5587 35.7735 14.2351 35.9485 15.707C35.8526 17.7906 35.4584 19.862 35.188 21.9334C34.5018 26.4886 33.7085 31.0282 32.935 35.5684C32.6685 37.0808 30.774 37.8636 29.5618 36.8958C26.6486 34.9281 23.713 32.9794 20.837 30.966C19.8949 30.0088 20.7686 28.634 21.6099 27.9504C24.0093 25.5858 26.5539 23.5768 28.8279 21.09C29.4413 19.6088 27.6289 20.8571 27.0311 21.2397C23.7463 23.5033 20.5419 25.9051 17.0787 27.8945C15.3097 28.8682 13.2479 28.0361 11.4797 27.4927C9.89431 26.8363 7.57109 26.175 8.93809 25.1741L8.93825 25.1739Z" fill="white"/>
<defs>
<linearGradient id="paint0_linear_1_1831" x1="32.002" y1="8.0016" x2="20.002" y2="36" gradientUnits="userSpaceOnUse">
<stop stop-color="#37AEE2"/>
<stop offset="1" stop-color="#1E96C8"/>
</linearGradient>
</defs>
</svg>
