<svg width="48" height="48" viewBox="0 0 48 48" fill="none" xmlns="http://www.w3.org/2000/svg">
<g clip-path="url(#clip0_1_2074)">
<path fill-rule="evenodd" clip-rule="evenodd" d="M19.5156 18.9001V17.0279C18.8658 16.9359 18.2106 16.8881 17.5543 16.885C9.52906 16.885 3 23.4152 3 31.4405C3 36.3634 5.46035 40.7212 9.21355 43.3564C6.70047 40.6688 5.30332 37.1262 5.30535 33.4468C5.30535 25.5358 11.6486 19.0848 19.5156 18.9001Z" fill="#00F2EA"/>
<path fill-rule="evenodd" clip-rule="evenodd" d="M19.8586 40.0934C23.4392 40.0934 26.3602 37.245 26.4932 33.6952L26.5053 2.00632H32.2945C32.1709 1.34468 32.1083 0.673085 32.1076 0H24.201L24.1878 31.69C24.0559 35.2387 21.1338 38.086 17.5543 38.086C16.4797 38.0864 15.4211 37.8246 14.4706 37.3231C15.0844 38.1793 15.8931 38.8772 16.83 39.3589C17.767 39.8407 18.8051 40.0924 19.8586 40.0934ZM43.1088 12.7624V11.0012C40.9813 11.0032 38.8994 10.3843 37.1184 9.22028C38.6798 11.0181 40.7822 12.2609 43.1099 12.7624" fill="#00F2EA"/>
<path fill-rule="evenodd" clip-rule="evenodd" d="M37.1185 9.21921C35.3731 7.22219 34.4118 4.65966 34.4129 2.00745H32.2945C32.5688 3.47338 33.1377 4.86839 33.9669 6.10801C34.7961 7.34763 35.8683 8.40606 37.1185 9.21921ZM17.5543 24.7927C15.7922 24.7947 14.1027 25.4956 12.8567 26.7417C11.6106 27.9877 10.9097 29.6772 10.9077 31.4394C10.9088 32.6516 11.2413 33.8404 11.869 34.8774C12.4968 35.9144 13.396 36.7601 14.4696 37.3231C13.6522 36.1959 13.212 34.8392 13.2119 33.4468C13.2136 31.6844 13.9144 29.9947 15.1605 28.7484C16.4066 27.5021 18.0962 26.801 19.8586 26.799C20.5435 26.799 21.1998 26.9122 21.8198 27.1068V19.0342C21.1701 18.9422 20.5148 18.8945 19.8586 18.8913C19.7432 18.8913 19.6299 18.8979 19.5156 18.9001V25.1005C18.8813 24.8986 18.22 24.7948 17.5543 24.7927Z" fill="#FF004F"/>
<path fill-rule="evenodd" clip-rule="evenodd" d="M43.1088 12.7624V18.9078C39.0083 18.9078 35.21 17.5963 32.1076 15.3701V31.4393C32.1076 39.4646 25.5796 45.9937 17.5544 45.9937C14.4531 45.9937 11.5772 45.0152 9.21356 43.3552C10.5725 44.8207 12.2194 45.9897 14.0512 46.7889C15.883 47.5882 17.8601 48.0005 19.8586 48C27.8839 48 34.413 41.4709 34.413 33.4467V17.3775C37.6179 19.6821 41.4667 20.9198 45.4142 20.9152V13.0064C44.6227 13.0064 43.8531 12.9207 43.1088 12.7613" fill="#FF004F"/>
<path fill-rule="evenodd" clip-rule="evenodd" d="M32.1076 31.4394V15.3701C35.3124 17.675 39.1613 18.9127 43.1088 18.9078V12.7624C40.7813 12.2604 38.6794 11.0172 37.1185 9.21921C35.8683 8.40606 34.7961 7.34763 33.9669 6.10801C33.1378 4.86839 32.5688 3.47338 32.2945 2.00745H26.5053L26.4932 33.6963C26.3602 37.245 23.4392 40.0935 19.8586 40.0935C18.8051 40.0924 17.767 39.8406 16.8301 39.3588C15.8933 38.8771 15.0845 38.1793 14.4707 37.3231C13.3969 36.7602 12.4975 35.9146 11.8695 34.8776C11.2415 33.8406 10.9089 32.6517 10.9077 31.4394C10.9097 29.6772 11.6106 27.9877 12.8567 26.7417C14.1027 25.4956 15.7922 24.7947 17.5544 24.7927C18.2382 24.7927 18.8945 24.9048 19.5156 25.1005V18.9001C11.6486 19.0848 5.30536 25.5358 5.30536 33.4468C5.30536 37.2725 6.79169 40.7553 9.21356 43.3564C11.6551 45.0751 14.5686 45.9963 17.5544 45.9937C25.5796 45.9937 32.1076 39.4646 32.1076 31.4394Z" fill="white"/>
</g>
<defs>
<clipPath id="clip0_1_2074">
<rect width="48" height="48" fill="white"/>
</clipPath>
</defs>
</svg>
