<svg width="49" height="49" viewBox="0 0 49 49" fill="none" xmlns="http://www.w3.org/2000/svg">
<path fill-rule="evenodd" clip-rule="evenodd" d="M17.5322 0.900024H32.2676C45.7157 0.900024 48.8999 4.08422 48.8999 17.5323V32.2677C48.8999 45.7158 45.7157 48.9 32.2676 48.9H17.5322C4.08409 48.9 0.899902 45.7158 0.899902 32.2677V17.5323C0.899902 4.08422 4.08409 0.900024 17.5322 0.900024Z" fill="#4680C2"/>
<path fill-rule="evenodd" clip-rule="evenodd" d="M40.1942 17.4307C40.4313 16.6855 40.1942 16.1435 39.1441 16.1435H35.655C34.7743 16.1435 34.3678 16.6177 34.1307 17.1259C34.1307 17.1259 32.3354 21.4618 29.8287 24.2733C29.0157 25.0863 28.6431 25.3573 28.2027 25.3573C27.9656 25.3573 27.6607 25.0863 27.6607 24.3411V17.3968C27.6607 16.5161 27.3897 16.1096 26.6445 16.1096H21.1568C20.6148 16.1096 20.2761 16.5161 20.2761 16.9226C20.2761 17.7695 21.5294 17.9727 21.6649 20.3439V25.4928C21.6649 26.6107 21.4617 26.8139 21.0213 26.8139C19.8357 26.8139 16.9564 22.4441 15.2288 17.4646C14.8901 16.4822 14.5513 16.1096 13.6706 16.1096H10.1476C9.13141 16.1096 8.96204 16.5839 8.96204 17.092C8.96204 18.0066 10.1476 22.6135 14.4836 28.7109C17.3629 32.8774 21.4617 35.1131 25.154 35.1131C27.3897 35.1131 27.6607 34.605 27.6607 33.7582V30.6079C27.6607 29.5916 27.8639 29.4223 28.5753 29.4223C29.0834 29.4223 29.998 29.6932 32.0644 31.6918C34.4356 34.063 34.8421 35.147 36.1632 35.147H39.6522C40.6685 35.147 41.1427 34.6389 40.8717 33.6565C40.5668 32.6742 39.4151 31.2515 37.9246 29.5577C37.1116 28.6093 35.8922 27.5592 35.5196 27.051C35.0114 26.3736 35.1469 26.1026 35.5196 25.4928C35.4857 25.4928 39.7538 19.4632 40.1942 17.4307Z" fill="white"/>
</svg>
