<svg width="114" height="114" fill="none" xmlns="http://www.w3.org/2000/svg"><path d="M36.956 17.695a1.8 1.8 0 01-1.792-1.792c0-.984.808-1.767 1.792-1.767h16.056c.984 0 1.792.783 1.792 1.767 0 .984-.807 1.792-1.792 1.792H36.956zm0 25.092a1.8 1.8 0 01-1.792-1.792c0-.985.808-1.767 1.792-1.767h31.581c.984 0 1.792.782 1.792 1.767a1.8 1.8 0 01-1.792 1.792h-31.58zm0-8.027c-.984 0-1.792-.782-1.792-1.767a1.799 1.799 0 011.792-1.792h40.088c.984 0 1.767.807 1.767 1.792s-.783 1.767-1.767 1.767H36.957zm0-8.002a1.8 1.8 0 01-1.792-1.792c0-.984.808-1.767 1.792-1.767h40.088c.984 0 1.767.783 1.767 1.767 0 .984-.783 1.792-1.767 1.792H36.957zM21.028 95.9c.984 0 1.792.783 1.792 1.767a1.8 1.8 0 01-1.792 1.792H7.674c-2.096 0-4.014-.883-5.428-2.272-.025-.025-.05-.076-.1-.101C.833 95.698 0 93.831 0 91.76V62.25c0-3.735 1.54-7.118 3.99-9.592 2.472-2.448 5.855-3.988 9.592-3.988h86.838c3.736 0 7.119 1.54 9.593 3.988 2.449 2.474 3.989 5.857 3.989 9.592v29.511c0 2.12-.884 4.04-2.272 5.428-.024.05-.077.075-.101.1-1.388 1.339-3.256 2.171-5.325 2.171H93.026a1.8 1.8 0 01-1.794-1.792c0-.985.809-1.767 1.794-1.767h13.278c1.109 0 2.094-.455 2.852-1.136 0-.025.024-.05.075-.1a4.125 4.125 0 001.212-2.904v-29.51c0-2.752-1.136-5.251-2.953-7.069-1.817-1.818-4.317-2.953-7.069-2.953h-86.84c-2.752 0-5.251 1.136-7.069 2.953C4.694 57 3.56 59.5 3.56 62.25v29.511a4.034 4.034 0 001.135 2.828l.076.076c.758.756 1.793 1.237 2.904 1.237l13.353-.001z" fill="#5200D9"/><path d="M95.876 57.025a6.13 6.13 0 014.391 1.843c.051.024.075.075.128.1 1.059 1.136 1.715 2.652 1.715 4.29a6.24 6.24 0 01-1.842 4.419 6.157 6.157 0 01-4.391 1.817 6.221 6.221 0 01-4.419-1.817 6.324 6.324 0 01-1.817-4.419 6.22 6.22 0 011.817-4.391 6.24 6.24 0 014.418-1.842zm1.892 4.342a2.693 2.693 0 00-1.892-.782 2.7 2.7 0 00-1.895.782c-.48.504-.782 1.161-.782 1.892a2.69 2.69 0 001.65 2.476 2.69 2.69 0 003.5-1.45c.135-.325.203-.674.201-1.026 0-.706-.278-1.337-.705-1.817l-.077-.075z" fill="#5200D9"/><path fill-rule="evenodd" clip-rule="evenodd" d="M16.358 61.493c.984 0 1.793.782 1.793 1.766a1.8 1.8 0 01-1.793 1.793c-.985 0-1.767-.808-1.767-1.793 0-.985.782-1.766 1.767-1.766zm15.676 0c.984 0 1.793.782 1.793 1.766a1.8 1.8 0 01-1.793 1.793c-.984 0-1.767-.808-1.767-1.793 0-.985.783-1.766 1.767-1.766zm-7.826 0c.985 0 1.767.782 1.767 1.766s-.782 1.793-1.767 1.793a1.8 1.8 0 01-1.792-1.793c0-.985.808-1.766 1.792-1.766z" fill="#5200D9"/><path d="M88.378 78.18c-.152-.96.53-1.87 1.514-2.02.958-.127 1.868.555 1.995 1.514l4.467 30.545c.026.227.05.455.05.656 0 1.337-.554 2.523-1.438 3.433a5.59 5.59 0 01-3.18 1.615c-.25.051-.504.076-.758.076H22.971c-.252 0-.504-.025-.757-.076h-.076a5.788 5.788 0 01-3.105-1.615c-.883-.91-1.439-2.096-1.439-3.433 0-.202.025-.429.051-.656l4.442-30.545a1.809 1.809 0 012.02-1.515 1.805 1.805 0 011.515 2.02l-4.469 30.546v.151c0 .353.177.681.43.959.277.302.68.504 1.085.579h.051c.075 0 .151.025.252.025h68.057c.1 0 .177-.025.252-.025a2.137 2.137 0 001.136-.579c.252-.279.429-.606.429-.959 0-.051 0-.126-.024-.151l-4.443-30.546z" fill="#5200D9"/><path d="M16.787 86.434c.985 0 1.767.808 1.767 1.793 0 .985-.782 1.767-1.767 1.767-1.464 0-2.801-.606-3.786-1.566-.959-.984-1.565-2.322-1.565-3.762v-3.18A5.326 5.326 0 0113 77.725h.025a5.223 5.223 0 013.761-1.566H97.29a5.22 5.22 0 013.762 1.566 5.266 5.266 0 011.566 3.76v3.181a5.263 5.263 0 01-1.566 3.762 5.26 5.26 0 01-3.762 1.566c-.984 0-1.792-.783-1.792-1.767a1.8 1.8 0 011.792-1.793 1.888 1.888 0 001.262-.505v-.025c.303-.302.504-.757.504-1.237v-3.18c0-.48-.202-.933-.504-1.237v-.025a1.888 1.888 0 00-1.262-.504H16.787c-.505 0-.959.202-1.262.504v.025c-.328.303-.53.757-.53 1.237v3.18c0 .48.203.934.53 1.237v.025a1.79 1.79 0 001.262.505zm8.86-42.889a1.8 1.8 0 01-1.792 1.792c-.986 0-1.768-.808-1.768-1.792V4.771a4.728 4.728 0 011.389-3.358l.126-.126C24.461.504 25.596 0 26.86 0h48.492c.615 0 1.224.12 1.794.353a4.732 4.732 0 011.54.984l11.688 11.006c.504.48.908 1.01 1.16 1.615a4.92 4.92 0 01.38 1.918v27.668c0 .984-.784 1.792-1.768 1.792a1.798 1.798 0 01-1.79-1.792V18.427l-8.283.025v.025h-.024v-.025c-2.397 0-4.215-.834-5.428-2.146-1.237-1.338-1.818-3.08-1.818-4.947h-.024v-7.8H26.86a1.27 1.27 0 00-.807.304l-.051.05a1.2 1.2 0 00-.353.859v38.773zm62.25-28.652l-11.56-10.88v7.347c0 .984.302 1.893.883 2.523.58.632 1.515 1.035 2.828 1.035h.024l7.826-.025z" fill="#5200D9"/></svg>