<svg width="40" height="40" fill="none" xmlns="http://www.w3.org/2000/svg"><circle cx="20" cy="20" r="20" fill="url(#paint0_linear_2_35)"/><path d="M26.58 12H14.42C13.045 12 12 13.046 12 14.42v12.16c0 1.374 1.046 2.42 2.42 2.42h12.16c1.374 0 2.42-1.046 2.42-2.42V14.42c0-1.374-1.046-2.42-2.42-2.42zM20.5 25.6c2.811 0 5.1-2.223 5.1-4.904 0-.458-.065-.98-.196-1.373h1.438v6.93a.655.655 0 01-.653.655H14.812a.655.655 0 01-.654-.654v-6.996h1.504a4.98 4.98 0 00-.197 1.373C15.4 23.377 17.69 25.6 20.5 25.6zm0-1.962c-1.83 0-3.27-1.438-3.27-3.203 0-1.766 1.44-3.204 3.27-3.204s3.27 1.438 3.27 3.204c0 1.83-1.44 3.204-3.27 3.204zm6.277-6.996c0 .393-.327.72-.72.72h-1.83a.726.726 0 01-.72-.72v-1.765c0-.392.328-.72.72-.72h1.83c.393 0 .72.328.72.72v1.765z" fill="#fff"/><defs><linearGradient id="paint0_linear_2_35" x1="8.5" y1="35.5" x2="35" y2="8" gradientUnits="userSpaceOnUse"><stop stop-color="#EEA054"/><stop offset=".503" stop-color="#D64763"/><stop offset="1" stop-color="#B62A99"/></linearGradient></defs></svg>