<?xml version="1.0" encoding="utf-8"?><svg viewBox="0 0 148 114" xmlns="http://www.w3.org/2000/svg" xmlns:xlink="http://www.w3.org/1999/xlink"><style>:root>svg{display:none}:root>svg:target{display:block}</style><svg fill="none" viewBox="0 0 48 48" id="facebook" xmlns="http://www.w3.org/2000/svg"><g clip-path="url(#aa)"><path d="M48 24C48 10.744 37.256 0 24 0S0 10.744 0 24c0 11.981 8.775 21.91 20.25 23.71V30.936h-6.094V24h6.094v-5.288c0-6.014 3.581-9.337 9.066-9.337 2.625 0 5.372.469 5.372.469v5.906h-3.029c-2.98 0-3.909 1.852-3.909 3.75V24h6.656l-1.064 6.938H27.75v16.771C39.225 45.91 48 35.981 48 24z" fill="#1877F2"/><path d="M33.342 30.938 34.406 24H27.75v-4.5c0-1.898.928-3.75 3.91-3.75h3.027V9.844s-2.746-.469-5.371-.469c-5.485 0-9.066 3.323-9.066 9.337V24h-6.094v6.938h6.094v16.771c1.223.193 2.475.291 3.75.291s2.527-.098 3.75-.29V30.936h5.592z" fill="#fff"/></g><defs><clipPath id="aa"><path fill="#fff" d="M0 0h48v48H0z"/></clipPath></defs></svg><svg fill="none" viewBox="0 0 90 114" id="icon-card-1" xmlns="http://www.w3.org/2000/svg"><path d="M80.697 0H9.303C4.446 0 .493 3.952.493 8.81v96.381c0 4.857 3.953 8.809 8.81 8.809h71.394c4.857 0 8.809-3.952 8.809-8.809V8.809c0-4.857-3.952-8.809-8.81-8.809zM3.834 8.81a5.476 5.476 0 0 1 5.47-5.47h71.393a5.476 5.476 0 0 1 5.469 5.47v34.026H3.834V8.809zm82.332 96.381a5.476 5.476 0 0 1-5.47 5.469H9.304a5.476 5.476 0 0 1-5.47-5.469V46.176h82.333v59.015z" fill="#5200D9"/><path d="M64.633 10.709H14.658a3.459 3.459 0 0 0-3.455 3.455v17.848a3.459 3.459 0 0 0 3.455 3.455h3.57a1.67 1.67 0 1 0 0-3.34h-3.57a.114.114 0 0 1-.106-.07.115.115 0 0 1-.01-.045V14.164c0-.063.052-.115.116-.115h49.975a1.67 1.67 0 1 0 0-3.34z" fill="#5200D9"/><path d="M75.343 10.709h-3.57a1.67 1.67 0 1 0 0 3.34h3.57c.063 0 .114.052.114.115v17.849a.114.114 0 0 1-.115.114H25.367a1.67 1.67 0 1 0 0 3.34h49.975a3.458 3.458 0 0 0 3.455-3.454v-17.85a3.459 3.459 0 0 0-3.454-3.454zM36.075 53.545a7.032 7.032 0 0 0-7.024 7.025 7.032 7.032 0 0 0 7.024 7.024A7.032 7.032 0 0 0 43.1 60.57a7.032 7.032 0 0 0-7.024-7.025zm0 10.71a3.689 3.689 0 0 1-3.685-3.685 3.689 3.689 0 0 1 3.685-3.685 3.689 3.689 0 0 1 3.684 3.685 3.689 3.689 0 0 1-3.684 3.684zm0 7.139a7.032 7.032 0 0 0-7.024 7.024 7.032 7.032 0 0 0 7.024 7.025 7.032 7.032 0 0 0 7.024-7.025 7.032 7.032 0 0 0-7.024-7.024zm0 10.709a3.689 3.689 0 0 1-3.685-3.685 3.689 3.689 0 0 1 3.685-3.684 3.688 3.688 0 0 1 3.684 3.684 3.689 3.689 0 0 1-3.684 3.685zm0 7.14a7.032 7.032 0 0 0-7.024 7.024 7.032 7.032 0 0 0 7.024 7.024 7.032 7.032 0 0 0 7.024-7.024 7.032 7.032 0 0 0-7.024-7.025zm0 10.708a3.689 3.689 0 0 1-3.685-3.685 3.689 3.689 0 0 1 3.685-3.684 3.689 3.689 0 0 1 3.684 3.684 3.689 3.689 0 0 1-3.684 3.685zm17.848-46.406A7.033 7.033 0 0 0 46.9 60.57a7.032 7.032 0 0 0 7.024 7.024 7.032 7.032 0 0 0 7.025-7.024 7.032 7.032 0 0 0-7.025-7.025zm0 10.71a3.689 3.689 0 0 1-3.684-3.685 3.689 3.689 0 0 1 3.684-3.685 3.689 3.689 0 0 1 3.685 3.685 3.689 3.689 0 0 1-3.685 3.684zm0 7.139a7.032 7.032 0 0 0-7.024 7.024 7.032 7.032 0 0 0 7.024 7.025 7.032 7.032 0 0 0 7.025-7.025 7.032 7.032 0 0 0-7.025-7.024zm0 10.709a3.689 3.689 0 0 1-3.684-3.685 3.689 3.689 0 0 1 3.684-3.684 3.689 3.689 0 0 1 3.685 3.684 3.689 3.689 0 0 1-3.685 3.685zm0 7.14a7.032 7.032 0 0 0-7.024 7.024 7.032 7.032 0 0 0 7.024 7.024 7.032 7.032 0 0 0 7.025-7.024 7.032 7.032 0 0 0-7.025-7.025zm0 10.708a3.689 3.689 0 0 1-3.684-3.685 3.689 3.689 0 0 1 3.684-3.684 3.689 3.689 0 0 1 3.685 3.684 3.689 3.689 0 0 1-3.685 3.685zM18.228 53.545a7.033 7.033 0 0 0-7.025 7.025 7.032 7.032 0 0 0 7.025 7.024 7.032 7.032 0 0 0 7.024-7.024 7.032 7.032 0 0 0-7.024-7.025zm0 10.71a3.689 3.689 0 0 1-3.685-3.685 3.689 3.689 0 0 1 3.685-3.685 3.689 3.689 0 0 1 3.684 3.685 3.689 3.689 0 0 1-3.684 3.684zm0 7.139a7.032 7.032 0 0 0-7.025 7.024 7.033 7.033 0 0 0 7.025 7.025 7.032 7.032 0 0 0 7.024-7.025 7.032 7.032 0 0 0-7.024-7.024zm0 10.709a3.689 3.689 0 0 1-3.685-3.685 3.689 3.689 0 0 1 3.685-3.684 3.689 3.689 0 0 1 3.684 3.684 3.689 3.689 0 0 1-3.684 3.685zm0 7.14a7.032 7.032 0 0 0-7.025 7.024 7.032 7.032 0 0 0 7.025 7.024 7.032 7.032 0 0 0 7.024-7.024 7.032 7.032 0 0 0-7.024-7.025zm0 10.708a3.689 3.689 0 0 1-3.685-3.685 3.689 3.689 0 0 1 3.685-3.684 3.689 3.689 0 0 1 3.684 3.684 3.689 3.689 0 0 1-3.684 3.685zm53.545-46.406a7.033 7.033 0 0 0-7.025 7.025 7.032 7.032 0 0 0 7.025 7.024 7.032 7.032 0 0 0 7.024-7.024 7.032 7.032 0 0 0-7.024-7.025zm0 10.71a3.689 3.689 0 0 1-3.685-3.685 3.689 3.689 0 0 1 3.685-3.685 3.689 3.689 0 0 1 3.684 3.685 3.689 3.689 0 0 1-3.684 3.684zm0 7.139a7.032 7.032 0 0 0-7.025 7.024v17.849a7.032 7.032 0 0 0 7.025 7.024 7.032 7.032 0 0 0 7.024-7.024V78.418a7.032 7.032 0 0 0-7.024-7.024zm3.684 24.872a3.689 3.689 0 0 1-3.684 3.685 3.689 3.689 0 0 1-3.685-3.685V78.418a3.689 3.689 0 0 1 3.685-3.684 3.689 3.689 0 0 1 3.684 3.684v17.848z" fill="#5200D9"/></svg><svg fill="none" viewBox="0 0 112 112" id="icon-card-2" xmlns="http://www.w3.org/2000/svg"><path d="M109.438 64.906h-14.25a1.781 1.781 0 0 0-1.782 1.781v3.563h-2.825l-4.453-4.453 4.975-4.975a1.781 1.781 0 0 0 0-2.519l-7.125-7.125a1.78 1.78 0 0 0-2.519 0l-8.384 8.385h-9.95a1.78 1.78 0 0 0-1.26.521l-1.259 1.26H31.062v3.562h25.982L53.48 68.47H31.062v3.562H49.92l-.522.522a1.78 1.78 0 0 0-.522 1.26v9.95l-4.822 4.821a1.781 1.781 0 0 0-.486.91l-1.781 8.907a1.782 1.782 0 0 0 2.102 2.095l8.906-1.782a1.77 1.77 0 0 0 .91-.486l7.073-7.073a6.172 6.172 0 0 0 2.348.47h9.95l4.822 4.822c.334.334.787.522 1.26.522v10.687H4.343V4.344h74.812v42.75h3.563V2.562a1.781 1.781 0 0 0-1.781-1.78H2.561a1.781 1.781 0 0 0-1.78 1.78v106.876a1.78 1.78 0 0 0 1.78 1.781h78.376a1.782 1.782 0 0 0 1.78-1.781v-12.47h10.688v1.782a1.783 1.783 0 0 0 1.781 1.781h14.251a1.78 1.78 0 0 0 1.781-1.781V66.687a1.782 1.782 0 0 0-1.781-1.78zm-26.72-9.95 4.607 4.606-19.594 19.594h-4.606a6.235 6.235 0 0 0-5.142 9.749l-5.545 5.545-4.607-4.606L82.72 54.956zM52.439 74.55l11.424-11.425h5.65L52.438 80.2v-5.65zm-6.032 18.906 2.42 2.42-3.029.605.61-3.025zm33.488-.05-4.822-4.822a1.78 1.78 0 0 0-1.26-.522H63.126a2.672 2.672 0 0 1 0-5.343h16.031v-3.563H72.77l10.84-10.84 4.975 4.975c.334.334.787.521 1.26.522h3.562v19.593H79.894zm27.762 3.563H96.969v-28.5h10.687v28.5z" fill="#5200D9"/><path d="M23.938 79.156H9.688a1.781 1.781 0 0 0-1.782 1.782v14.25a1.781 1.781 0 0 0 1.782 1.78h14.25a1.78 1.78 0 0 0 1.78-1.78V83.456l4.823-4.822-2.52-2.518-3.264 3.265a1.73 1.73 0 0 0-.82-.225zm-1.782 14.25H11.47V82.72h9.95l-4.607 4.606-2.303-2.303-2.518 2.519 3.562 3.562a1.781 1.781 0 0 0 2.519 0l4.084-4.084v6.387zm5.866-81.415-3.265 3.265a1.73 1.73 0 0 0-.82-.225H9.688a1.781 1.781 0 0 0-1.78 1.782v14.25a1.781 1.781 0 0 0 1.78 1.78h14.25a1.78 1.78 0 0 0 1.782-1.78V19.33l4.822-4.822-2.52-2.518zm-5.866 17.29H11.47V18.594h9.95L16.812 23.2l-2.303-2.303-2.518 2.519 3.562 3.562a1.781 1.781 0 0 0 2.519 0l4.084-4.084v6.387zm5.866 4.085-3.265 3.265a1.73 1.73 0 0 0-.82-.225H9.688a1.781 1.781 0 0 0-1.78 1.782v14.25a1.781 1.781 0 0 0 1.78 1.78h14.25a1.78 1.78 0 0 0 1.782-1.78V40.706l4.822-4.822-2.52-2.518zm-5.866 17.29H11.47V39.97h9.95l-4.607 4.606-2.303-2.303-2.518 2.519 3.562 3.562a1.781 1.781 0 0 0 2.519 0l4.084-4.084v6.387zm5.866 4.085-3.265 3.265a1.73 1.73 0 0 0-.82-.225H9.688a1.781 1.781 0 0 0-1.78 1.782v14.25a1.781 1.781 0 0 0 1.78 1.78h14.25a1.78 1.78 0 0 0 1.782-1.78V62.08l4.822-4.822-2.52-2.518zm-5.866 17.29H11.47V61.344h9.95l-4.607 4.606-2.303-2.303-2.518 2.519 3.562 3.562a1.781 1.781 0 0 0 2.519 0l4.084-4.084v6.387zm8.907-53.437h44.53v3.562h-44.53v-3.562zm0 7.125h37.406v3.562H31.063V25.72zm40.968 0h3.563v3.562H72.03V25.72zm-40.969 14.25h44.532v3.562H31.063V39.97zm0 7.125H68.47v3.562H31.063v-3.562zm40.97 0h3.562v3.562H72.03v-3.562zm-40.97 35.625h8.907v3.562h-8.907V82.72zm0 7.125h8.907v3.562h-8.907v-3.562z" fill="#5200D9"/></svg><svg fill="none" viewBox="0 0 114 114" id="icon-card-3" xmlns="http://www.w3.org/2000/svg"><path d="M113.763 66.637h-3.789V51.481c-.006-5.228-4.243-9.466-9.473-9.473h-5.374l5.116-8.864a5.691 5.691 0 0 0-.415-6.305 5.683 5.683 0 0 0-1.67-1.462L55.488.748a5.706 5.706 0 0 0-7.754 2.084l-22.61 39.176H9.565a9.485 9.485 0 0 0-9.473 9.473v53.046A9.484 9.484 0 0 0 9.565 114h90.936c5.23-.007 9.467-4.243 9.473-9.473V89.371h3.789V66.637zM96.967 31.25 86.374 49.587H52.117l20.095-34.815 24.06 13.89a1.92 1.92 0 0 1 .695 2.587zM38.991 49.587 62.376 9.093l6.555 3.79-21.186 36.704H38.99zm12.038-44.86a1.894 1.894 0 0 1 2.583-.692L59.093 7.2 34.616 49.587h-9.494L51.03 4.727zm55.156 99.801a5.683 5.683 0 0 1-5.684 5.683H9.565a5.683 5.683 0 0 1-5.684-5.683V51.481a5.684 5.684 0 0 1 5.684-5.683h13.372l-2.194 3.789H11.46v3.789h87.147v-3.789h-7.858l2.19-3.789h7.562a5.684 5.684 0 0 1 5.684 5.683v15.157h-20.84a9.484 9.484 0 0 0-9.472 9.472v3.79a9.484 9.484 0 0 0 9.472 9.472h20.84v15.156zm3.789-18.945H85.345a5.684 5.684 0 0 1-5.683-5.684V76.11a5.684 5.684 0 0 1 5.683-5.683h24.629v15.156z" fill="#5200D9"/><path d="M81.556 78.004a5.684 5.684 0 1 0 11.368 0 5.684 5.684 0 0 0-11.368 0zm5.684-1.894a1.895 1.895 0 1 1 0 3.789 1.895 1.895 0 0 1 0-3.79z" fill="#5200D9"/></svg><svg fill="none" viewBox="0 0 114 114" id="icon-card-4" xmlns="http://www.w3.org/2000/svg"><path d="M36.956 17.695a1.8 1.8 0 0 1-1.792-1.792c0-.984.808-1.767 1.792-1.767h16.056c.984 0 1.792.783 1.792 1.767 0 .984-.807 1.792-1.792 1.792H36.956zm0 25.092a1.8 1.8 0 0 1-1.792-1.792c0-.985.808-1.767 1.792-1.767h31.581c.984 0 1.792.782 1.792 1.767a1.8 1.8 0 0 1-1.792 1.792h-31.58zm0-8.027c-.984 0-1.792-.782-1.792-1.767a1.799 1.799 0 0 1 1.792-1.792h40.088c.984 0 1.767.807 1.767 1.792s-.783 1.767-1.767 1.767H36.957zm0-8.002a1.8 1.8 0 0 1-1.792-1.792c0-.984.808-1.767 1.792-1.767h40.088c.984 0 1.767.783 1.767 1.767 0 .984-.783 1.792-1.767 1.792H36.957zM21.028 95.9c.984 0 1.792.783 1.792 1.767a1.8 1.8 0 0 1-1.792 1.792H7.674c-2.096 0-4.014-.883-5.428-2.272-.025-.025-.05-.076-.1-.101C.833 95.698 0 93.831 0 91.76V62.25c0-3.735 1.54-7.118 3.99-9.592 2.472-2.448 5.855-3.988 9.592-3.988h86.838c3.736 0 7.119 1.54 9.593 3.988 2.449 2.474 3.989 5.857 3.989 9.592v29.511c0 2.12-.884 4.04-2.272 5.428-.024.05-.077.075-.101.1-1.388 1.339-3.256 2.171-5.325 2.171H93.026a1.8 1.8 0 0 1-1.794-1.792c0-.985.809-1.767 1.794-1.767h13.278c1.109 0 2.094-.455 2.852-1.136 0-.025.024-.05.075-.1a4.125 4.125 0 0 0 1.212-2.904v-29.51c0-2.752-1.136-5.251-2.953-7.069-1.817-1.818-4.317-2.953-7.069-2.953h-86.84c-2.752 0-5.251 1.136-7.069 2.953C4.694 57 3.56 59.5 3.56 62.25v29.511a4.034 4.034 0 0 0 1.135 2.828l.076.076c.758.756 1.793 1.237 2.904 1.237l13.353-.001z" fill="#5200D9"/><path d="M95.876 57.025a6.13 6.13 0 0 1 4.391 1.843c.051.024.075.075.128.1 1.059 1.136 1.715 2.652 1.715 4.29a6.24 6.24 0 0 1-1.842 4.419 6.157 6.157 0 0 1-4.391 1.817 6.221 6.221 0 0 1-4.419-1.817 6.324 6.324 0 0 1-1.817-4.419 6.22 6.22 0 0 1 1.817-4.391 6.24 6.24 0 0 1 4.418-1.842zm1.892 4.342a2.693 2.693 0 0 0-1.892-.782 2.7 2.7 0 0 0-1.895.782c-.48.504-.782 1.161-.782 1.892a2.69 2.69 0 0 0 1.65 2.476 2.69 2.69 0 0 0 3.5-1.45c.135-.325.203-.674.201-1.026 0-.706-.278-1.337-.705-1.817l-.077-.075z" fill="#5200D9"/><path fill-rule="evenodd" clip-rule="evenodd" d="M16.358 61.493c.984 0 1.793.782 1.793 1.766a1.8 1.8 0 0 1-1.793 1.793c-.985 0-1.767-.808-1.767-1.793 0-.985.782-1.766 1.767-1.766zm15.676 0c.984 0 1.793.782 1.793 1.766a1.8 1.8 0 0 1-1.793 1.793c-.984 0-1.767-.808-1.767-1.793 0-.985.783-1.766 1.767-1.766zm-7.826 0c.985 0 1.767.782 1.767 1.766s-.782 1.793-1.767 1.793a1.8 1.8 0 0 1-1.792-1.793c0-.985.808-1.766 1.792-1.766z" fill="#5200D9"/><path d="M88.378 78.18c-.152-.96.53-1.87 1.514-2.02.958-.127 1.868.555 1.995 1.514l4.467 30.545c.026.227.05.455.05.656 0 1.337-.554 2.523-1.438 3.433a5.59 5.59 0 0 1-3.18 1.615c-.25.051-.504.076-.758.076H22.971c-.252 0-.504-.025-.757-.076h-.076a5.788 5.788 0 0 1-3.105-1.615c-.883-.91-1.439-2.096-1.439-3.433 0-.202.025-.429.051-.656l4.442-30.545a1.809 1.809 0 0 1 2.02-1.515 1.805 1.805 0 0 1 1.515 2.02l-4.469 30.546v.151c0 .353.177.681.43.959.277.302.68.504 1.085.579h.051c.075 0 .151.025.252.025h68.057c.1 0 .177-.025.252-.025a2.137 2.137 0 0 0 1.136-.579c.252-.279.429-.606.429-.959 0-.051 0-.126-.024-.151l-4.443-30.546z" fill="#5200D9"/><path d="M16.787 86.434c.985 0 1.767.808 1.767 1.793 0 .985-.782 1.767-1.767 1.767-1.464 0-2.801-.606-3.786-1.566-.959-.984-1.565-2.322-1.565-3.762v-3.18A5.326 5.326 0 0 1 13 77.725h.025a5.223 5.223 0 0 1 3.761-1.566H97.29a5.22 5.22 0 0 1 3.762 1.566 5.266 5.266 0 0 1 1.566 3.76v3.181a5.263 5.263 0 0 1-1.566 3.762 5.26 5.26 0 0 1-3.762 1.566c-.984 0-1.792-.783-1.792-1.767a1.8 1.8 0 0 1 1.792-1.793 1.888 1.888 0 0 0 1.262-.505v-.025c.303-.302.504-.757.504-1.237v-3.18c0-.48-.202-.933-.504-1.237v-.025a1.888 1.888 0 0 0-1.262-.504H16.787c-.505 0-.959.202-1.262.504v.025c-.328.303-.53.757-.53 1.237v3.18c0 .48.203.934.53 1.237v.025a1.79 1.79 0 0 0 1.262.505zm8.86-42.889a1.8 1.8 0 0 1-1.792 1.792c-.986 0-1.768-.808-1.768-1.792V4.771a4.728 4.728 0 0 1 1.389-3.358l.126-.126C24.461.504 25.596 0 26.86 0h48.492c.615 0 1.224.12 1.794.353a4.732 4.732 0 0 1 1.54.984l11.688 11.006c.504.48.908 1.01 1.16 1.615a4.92 4.92 0 0 1 .38 1.918v27.668c0 .984-.784 1.792-1.768 1.792a1.798 1.798 0 0 1-1.79-1.792V18.427l-8.283.025v.025h-.024v-.025c-2.397 0-4.215-.834-5.428-2.146-1.237-1.338-1.818-3.08-1.818-4.947h-.024v-7.8H26.86a1.27 1.27 0 0 0-.807.304l-.051.05a1.2 1.2 0 0 0-.353.859v38.773zm62.25-28.652-11.56-10.88v7.347c0 .984.302 1.893.883 2.523.58.632 1.515 1.035 2.828 1.035h.024l7.826-.025z" fill="#5200D9"/></svg><svg fill="none" viewBox="0 0 40 40" id="instagramm" xmlns="http://www.w3.org/2000/svg"><circle cx="20" cy="20" r="20" fill="url(#fa)"/><path d="M26.58 12H14.42C13.045 12 12 13.046 12 14.42v12.16c0 1.374 1.046 2.42 2.42 2.42h12.16c1.374 0 2.42-1.046 2.42-2.42V14.42c0-1.374-1.046-2.42-2.42-2.42zM20.5 25.6c2.811 0 5.1-2.223 5.1-4.904 0-.458-.065-.98-.196-1.373h1.438v6.93a.655.655 0 0 1-.653.655H14.812a.655.655 0 0 1-.654-.654v-6.996h1.504a4.98 4.98 0 0 0-.197 1.373C15.4 23.377 17.69 25.6 20.5 25.6zm0-1.962c-1.83 0-3.27-1.438-3.27-3.203 0-1.766 1.44-3.204 3.27-3.204s3.27 1.438 3.27 3.204c0 1.83-1.44 3.204-3.27 3.204zm6.277-6.996c0 .393-.327.72-.72.72h-1.83a.726.726 0 0 1-.72-.72v-1.765c0-.392.328-.72.72-.72h1.83c.393 0 .72.328.72.72v1.765z" fill="#fff"/><defs><linearGradient id="fa" x1="8.5" y1="35.5" x2="35" y2="8" gradientUnits="userSpaceOnUse"><stop stop-color="#EEA054"/><stop offset=".503" stop-color="#D64763"/><stop offset="1" stop-color="#B62A99"/></linearGradient></defs></svg><svg fill="none" viewBox="0 0 20 20" id="letter" xmlns="http://www.w3.org/2000/svg"><path d="M16.667 16.667H3.333c-.92 0-1.666-.747-1.666-1.667V4.927a1.667 1.667 0 0 1 1.666-1.594h13.334c.92 0 1.666.746 1.666 1.667v10c0 .92-.746 1.667-1.666 1.667zM3.333 6.557V15h13.334V6.557L10 11 3.333 6.557zM4 5l6 4 6-4H4z" fill="#fff"/></svg><svg fill="none" viewBox="0 0 148 67" id="logo" xmlns="http://www.w3.org/2000/svg"><g clip-path="url(#ha)"><path d="M48.432 55.852c1.956 0 3.667-1.25 4.041-3.005l-1.32-.162c-.342 1.153-1.433 1.949-2.72 1.949-1.679 0-2.933-1.316-2.933-3.216-.017-1.884 1.27-3.2 2.949-3.2 1.254 0 2.379.796 2.688 1.982l1.304-.179C52.147 48.267 50.453 47 48.432 47c-2.476 0-4.285 1.852-4.285 4.418-.016 2.566 1.793 4.434 4.285 4.434zm8.042-.325h1.352v-6.984h2.966v-1.218h-7.3v1.218h2.982v6.984zM66.905 47c-1.352 0-2.411.585-3.014 1.575h-.147v-1.25h-1.352v11.938h1.352v-4.954h.147c.603.975 1.71 1.543 3.03 1.543 2.396 0 4.237-1.868 4.237-4.434S69.301 47 66.905 47zm-.146 1.218c1.76 0 3.047 1.364 3.047 3.2 0 1.803-1.287 3.216-3.047 3.216-1.776 0-3.063-1.413-3.063-3.216 0-1.803 1.287-3.2 3.063-3.2zm8.782 7.57c1.32 0 2.281-.52 2.868-1.463h.146v1.202h1.353v-5.44c0-1.869-1.353-3.07-3.487-3.07-2.07 0-3.422 1.104-3.422 2.842h1.369c-.016-1.024.798-1.625 2.037-1.625 1.352 0 2.15.715 2.15 1.82v.324l-2.28.276c-2.445.277-3.683 1.349-3.683 2.794 0 1.413 1.173 2.34 2.95 2.34zm.196-1.122c-1.108 0-1.793-.47-1.793-1.25 0-.764.652-1.413 2.33-1.624l2.281-.26v.73c0 1.381-1.14 2.404-2.818 2.404zm5.487.861h1.499l2.362-3.346h.163l2.363 3.346h1.499l-3.096-4.272 2.933-3.93h-1.45l-2.249 3.053h-.163l-2.248-3.053h-1.45l2.932 3.93-3.095 4.272zm13.02.325c2.575 0 4.416-1.835 4.416-4.434 0-2.583-1.84-4.418-4.415-4.418-2.59 0-4.416 1.835-4.416 4.418 0 2.599 1.825 4.434 4.416 4.434zm0-1.218c-1.791 0-3.062-1.348-3.062-3.216 0-1.852 1.27-3.2 3.063-3.2 1.776 0 3.063 1.348 3.063 3.2 0 1.868-1.287 3.216-3.063 3.216zm6.48.893h4.187c1.597 0 2.721-.974 2.721-2.371 0-1.04-.635-1.673-1.499-1.852v-.162a1.847 1.847 0 0 0 1.255-1.77c0-1.17-1.059-2.047-2.542-2.047h-4.122v8.202zm1.352-4.873v-2.176h2.623c.782 0 1.353.504 1.353 1.105 0 .6-.571 1.072-1.353 1.072h-2.623zm0 3.72v-2.55h2.607c.945 0 1.597.52 1.597 1.234 0 .715-.652 1.316-1.597 1.316h-2.607zm9.919 1.413c1.319 0 2.281-.52 2.867-1.462h.147v1.202h1.352v-5.44c0-1.869-1.352-3.07-3.486-3.07-2.07 0-3.422 1.104-3.422 2.842h1.369c-.017-1.024.798-1.625 2.036-1.625 1.353 0 2.151.715 2.151 1.82v.324l-2.281.276c-2.444.277-3.682 1.349-3.682 2.794 0 1.413 1.173 2.34 2.949 2.34zm.195-1.12c-1.108 0-1.792-.472-1.792-1.251 0-.764.652-1.413 2.33-1.624l2.281-.26v.73c0 1.381-1.141 2.404-2.819 2.404zm6.514.86h1.352v-3.54h4.807v3.54h1.352v-8.202h-1.352v3.443h-4.807v-3.443h-1.352v8.202zm10.008 0h1.646l4.366-6.27h.163v6.27h1.353v-8.202h-1.646l-4.383 6.286h-.147v-6.286h-1.352v8.202zm14.049.325c1.825 0 3.308-.844 3.959-2.241l-1.124-.569c-.505.975-1.58 1.592-2.819 1.592-1.662 0-2.867-1.105-3.063-2.761h7.283c.017-.179.017-.374.017-.536 0-2.518-1.825-4.337-4.334-4.337-2.542 0-4.367 1.82-4.367 4.32 0 2.632 1.874 4.532 4.448 4.532zm-3.031-5.165c.229-1.478 1.369-2.469 2.901-2.469 1.548 0 2.721.991 2.949 2.469h-5.85z" fill="#fff"/><path d="M7.594 30.599a7.969 7.969 0 0 0-4.06 1.115 7.325 7.325 0 0 0-2.8 2.98 6.79 6.79 0 0 0-.68 3.928 6.953 6.953 0 0 0 1.654 3.662L21.05 64.576a6.879 6.879 0 0 0 2.578 1.865 7.295 7.295 0 0 0 3.2.548 7.507 7.507 0 0 0 5.82-3.243l40.18-60.88.02-.03c.377-.544.255-1.624-.524-2.302a2.16 2.16 0 0 0-.74-.42 2.262 2.262 0 0 0-1.69.11 2.11 2.11 0 0 0-.716.562L28.655 43.86a1.751 1.751 0 0 1-.55.393 1.842 1.842 0 0 1-1.354.069 1.778 1.778 0 0 1-.593-.335L12.711 32.473C11.314 31.27 9.488 30.6 7.594 30.6z" fill="#5200D9"/><path d="M16.323 56.48c.408 0 .945-.08 1.336-.21v-1.09a3.83 3.83 0 0 1-.977.163c-.782 0-1.271-.552-1.271-1.332v-4.97h2.118V47.97h-2.118l.016-2.647h-1.059l-.31 2.647h-1.336v1.072h1.337v5.02c0 1.445.88 2.42 2.264 2.42zm3.383-.308h1.353v-4.418c0-1.624.863-2.729 2.101-2.729.31 0 .799.065 1.223.244v-1.251c-.245-.13-.636-.211-1.01-.211-.913 0-1.826.52-2.2 1.267h-.147v-1.105h-1.32v8.203zm7.227-9.762c.57 0 .962-.406.962-.974 0-.553-.391-.943-.962-.943-.57 0-.977.39-.977.942 0 .569.407.975.977.975zm-.684 9.762h1.352v-8.203H26.25v8.203zm8.504-8.528c-1.352 0-2.411.585-3.014 1.576h-.147v-1.25H30.24v11.938h1.352v-4.955h.147c.603.975 1.71 1.544 3.03 1.544 2.395 0 4.237-1.868 4.237-4.435 0-2.566-1.858-4.418-4.253-4.418zm-.147 1.219c1.76 0 3.047 1.364 3.047 3.2 0 1.802-1.287 3.215-3.047 3.215-1.776 0-3.063-1.413-3.063-3.216 0-1.802 1.288-3.2 3.063-3.2z" fill="#fff"/></g><defs><clipPath id="ha"><path fill="#fff" d="M0 0h148v67H0z"/></clipPath></defs></svg><svg fill="none" viewBox="0 0 16 16" id="minus" xmlns="http://www.w3.org/2000/svg"><path d="M3.333 8.667V7.333h9.334v1.334H3.333z" fill="#11002D"/></svg><svg fill="none" viewBox="0 0 16 16" id="plus" xmlns="http://www.w3.org/2000/svg"><path d="M8.667 8.667v4H7.333v-4h-4V7.333h4v-4h1.334v4h4v1.334h-4z" fill="#11002D"/></svg><svg fill="none" viewBox="0 0 8 4" id="product-icon" xmlns="http://www.w3.org/2000/svg"><path d="M4 3.667 7.333.333H.667L4 3.667z" fill="#fff"/></svg><svg fill="none" viewBox="0 0 14 8" id="select-person" xmlns="http://www.w3.org/2000/svg"><path d="M7 7.333 13.667.667H.333L7 7.333z" fill="#5200D9"/></svg><svg fill="none" viewBox="0 0 24 22" id="star" xmlns="http://www.w3.org/2000/svg"><path d="m12 0 2.694 8.292h8.719l-7.054 5.124 2.694 8.292L12 16.584l-7.053 5.124 2.694-8.292L.587 8.292h8.719L12 0z" fill="#FFE923"/></svg><svg fill="none" viewBox="0 0 48 48" id="telegramm" xmlns="http://www.w3.org/2000/svg"><path d="M24 48c13.255 0 24-10.745 24-24S37.255 0 24 0 0 10.745 0 24s10.745 24 24 24z" fill="url(#na)"/><path d="M8.938 25.174c2.806-1.545 5.938-2.835 8.864-4.132 5.034-2.123 10.088-4.21 15.194-6.152.993-.331 2.777-.655 2.953.817-.096 2.084-.49 4.155-.761 6.226-.686 4.556-1.48 9.095-2.253 13.635-.267 1.513-2.161 2.296-3.373 1.328-2.913-1.968-5.849-3.917-8.725-5.93-.942-.957-.068-2.332.773-3.016 2.4-2.364 4.944-4.373 7.218-6.86.613-1.481-1.2-.233-1.797.15-3.285 2.263-6.49 4.665-9.952 6.655-1.77.973-3.831.141-5.6-.402-1.585-.657-3.908-1.318-2.54-2.319z" fill="#fff"/><defs><linearGradient id="na" x1="32.002" y1="8.002" x2="20.002" y2="36" gradientUnits="userSpaceOnUse"><stop stop-color="#37AEE2"/><stop offset="1" stop-color="#1E96C8"/></linearGradient></defs></svg><svg fill="none" viewBox="0 0 48 48" id="tiktok" xmlns="http://www.w3.org/2000/svg"><g clip-path="url(#oa)" fill-rule="evenodd" clip-rule="evenodd"><path d="M19.516 18.9v-1.872c-.65-.092-1.305-.14-1.962-.143C9.53 16.885 3 23.415 3 31.44c0 4.923 2.46 9.281 6.214 11.916a14.497 14.497 0 0 1-3.909-9.91c0-7.91 6.344-14.361 14.21-14.546z" fill="#00F2EA"/><path d="M19.859 40.093c3.58 0 6.501-2.848 6.634-6.398l.012-31.689h5.79A10.988 10.988 0 0 1 32.108 0H24.2l-.013 31.69c-.132 3.549-3.054 6.396-6.634 6.396a6.603 6.603 0 0 1-3.083-.763 6.637 6.637 0 0 0 5.388 2.77zm23.25-27.33V11a10.93 10.93 0 0 1-5.99-1.78 11.006 11.006 0 0 0 5.99 3.541" fill="#00F2EA"/><path d="M37.118 9.22a10.952 10.952 0 0 1-2.705-7.213h-2.118a11.02 11.02 0 0 0 4.823 7.212zM17.554 24.792a6.654 6.654 0 0 0-6.646 6.646 6.651 6.651 0 0 0 3.562 5.884 6.604 6.604 0 0 1-1.258-3.876 6.654 6.654 0 0 1 6.647-6.648 6.53 6.53 0 0 1 1.96.308v-8.073a14.437 14.437 0 0 0-1.96-.143c-.116 0-.23.007-.343.01v6.2a6.534 6.534 0 0 0-1.962-.308z" fill="#FF004F"/><path d="M43.109 12.762v6.146c-4.1 0-7.899-1.312-11.001-3.538v16.07c0 8.025-6.528 14.554-14.554 14.554-3.1 0-5.977-.979-8.34-2.639A14.511 14.511 0 0 0 19.859 48c8.025 0 14.554-6.53 14.554-14.553v-16.07a18.806 18.806 0 0 0 11.001 3.538v-7.909c-.791 0-1.56-.085-2.305-.245" fill="#FF004F"/><path d="M32.108 31.44V15.37a18.802 18.802 0 0 0 11 3.538v-6.146a11.005 11.005 0 0 1-5.99-3.543 11.021 11.021 0 0 1-4.824-7.212h-5.789l-.012 31.69c-.133 3.548-3.054 6.396-6.634 6.396a6.637 6.637 0 0 1-5.388-2.77 6.651 6.651 0 0 1-3.563-5.884 6.654 6.654 0 0 1 6.646-6.646c.684 0 1.34.112 1.962.308v-6.2c-7.867.184-14.21 6.635-14.21 14.546a14.5 14.5 0 0 0 3.908 9.91 14.468 14.468 0 0 0 8.34 2.637c8.026 0 14.554-6.53 14.554-14.555z" fill="#fff"/></g><defs><clipPath id="oa"><path fill="#fff" d="M0 0h48v48H0z"/></clipPath></defs></svg><svg fill="none" viewBox="0 0 49 49" id="vk" xmlns="http://www.w3.org/2000/svg"><path fill-rule="evenodd" clip-rule="evenodd" d="M17.532.9h14.736C45.716.9 48.9 4.084 48.9 17.532v14.736c0 13.448-3.184 16.632-16.632 16.632H17.532C4.084 48.9.9 45.716.9 32.268V17.532C.9 4.084 4.084.9 17.532.9z" fill="#4680C2"/><path fill-rule="evenodd" clip-rule="evenodd" d="M40.194 17.43c.237-.744 0-1.287-1.05-1.287h-3.489c-.88 0-1.287.475-1.524.983 0 0-1.796 4.336-4.302 7.147-.813.813-1.186 1.084-1.626 1.084-.237 0-.542-.27-.542-1.016v-6.944c0-.88-.271-1.287-1.017-1.287h-5.487c-.542 0-.88.406-.88.813 0 .847 1.252 1.05 1.388 3.42v5.15c0 1.118-.203 1.32-.644 1.32-1.185 0-4.065-4.369-5.792-9.348-.339-.983-.678-1.355-1.558-1.355h-3.523c-1.017 0-1.186.474-1.186.982 0 .915 1.186 5.521 5.522 11.619 2.879 4.166 6.978 6.402 10.67 6.402 2.236 0 2.507-.508 2.507-1.355v-3.15c0-1.016.203-1.186.914-1.186.508 0 1.423.271 3.49 2.27 2.37 2.371 2.777 3.455 4.098 3.455h3.49c1.016 0 1.49-.508 1.219-1.49-.305-.983-1.457-2.405-2.947-4.1-.813-.948-2.033-1.998-2.405-2.506-.509-.677-.373-.948 0-1.558-.034 0 4.234-6.03 4.674-8.062z" fill="#fff"/></svg><svg fill="none" viewBox="0 0 40 40" id="whatsapp" xmlns="http://www.w3.org/2000/svg"><circle cx="20" cy="20" r="20" fill="#48C95F"/><path d="M27.927 12.063A10.428 10.428 0 0 0 20.537 9c-5.78 0-10.464 4.667-10.464 10.427 0 1.823.512 3.646 1.39 5.177L10 30l5.561-1.458c1.537.802 3.22 1.24 4.976 1.24 5.78 0 10.463-4.667 10.463-10.428-.073-2.698-1.098-5.323-3.073-7.291zm-2.342 11.083c-.22.583-1.244 1.166-1.756 1.24a4.104 4.104 0 0 1-1.61-.073c-.365-.146-.878-.292-1.463-.584-2.634-1.094-4.317-3.719-4.463-3.937-.147-.146-1.098-1.386-1.098-2.698 0-1.313.659-1.896.878-2.188.22-.291.512-.291.732-.291h.512c.146 0 .366-.073.585.437.22.51.732 1.823.805 1.896a.463.463 0 0 1 0 .437 1.527 1.527 0 0 1-.292.438c-.147.146-.293.364-.366.437-.147.146-.293.292-.147.51.147.293.659 1.095 1.464 1.824 1.024.875 1.83 1.166 2.122 1.312.293.146.439.073.585-.073.146-.145.659-.729.805-1.02.146-.292.366-.22.585-.146.22.073 1.537.729 1.756.875.293.145.44.218.513.291.073.22.073.73-.147 1.313z" fill="#fff"/></svg><svg fill="none" viewBox="0 0 48 48" id="youtube" xmlns="http://www.w3.org/2000/svg"><path d="M0 24C0 10.745 10.745 0 24 0s24 10.745 24 24-10.745 24-24 24S0 37.255 0 24z" fill="red"/><path d="M36.265 18.073a3.253 3.253 0 0 0-2.263-2.324C32.005 15.2 24 15.2 24 15.2s-8.005 0-10.002.55a3.248 3.248 0 0 0-2.263 2.323C11.2 20.123 11.2 24.4 11.2 24.4s0 4.277.535 6.327a3.253 3.253 0 0 0 2.263 2.324C15.995 33.6 24 33.6 24 33.6s8.005 0 10.002-.55a3.248 3.248 0 0 0 2.263-2.323c.535-2.05.535-6.327.535-6.327s0-4.277-.535-6.327z" fill="#fff"/><path d="M21.6 28.8v-8l6.4 4-6.4 4z" fill="red"/></svg></svg>