<svg width="48" height="48" fill="none" xmlns="http://www.w3.org/2000/svg"><path d="M24 48c13.255 0 24-10.745 24-24S37.255 0 24 0 0 10.745 0 24s10.745 24 24 24z" fill="url(#paint0_linear_1_1831)"/><path d="M8.938 25.174c2.806-1.545 5.938-2.835 8.864-4.132 5.034-2.123 10.088-4.21 15.194-6.152.993-.331 2.777-.655 2.953.817-.096 2.084-.49 4.155-.761 6.226-.686 4.556-1.48 9.095-2.253 13.635-.267 1.513-2.161 2.296-3.373 1.328-2.913-1.968-5.849-3.917-8.725-5.93-.942-.957-.068-2.332.773-3.016 2.4-2.364 4.944-4.373 7.218-6.86.613-1.481-1.2-.233-1.797.15-3.285 2.263-6.49 4.665-9.952 6.655-1.77.973-3.831.141-5.6-.402-1.585-.657-3.908-1.318-2.54-2.319z" fill="#fff"/><defs><linearGradient id="paint0_linear_1_1831" x1="32.002" y1="8.002" x2="20.002" y2="36" gradientUnits="userSpaceOnUse"><stop stop-color="#37AEE2"/><stop offset="1" stop-color="#1E96C8"/></linearGradient></defs></svg>