<svg width="48" height="48" fill="none" xmlns="http://www.w3.org/2000/svg"><g clip-path="url(#clip0_1_2074)" fill-rule="evenodd" clip-rule="evenodd"><path d="M19.516 18.9v-1.872c-.65-.092-1.305-.14-1.962-.143C9.53 16.885 3 23.415 3 31.44c0 4.923 2.46 9.281 6.214 11.916a14.497 14.497 0 01-3.909-9.91c0-7.91 6.344-14.361 14.21-14.546z" fill="#00F2EA"/><path d="M19.859 40.093c3.58 0 6.501-2.848 6.634-6.398l.012-31.689h5.79A10.988 10.988 0 0132.108 0H24.2l-.013 31.69c-.132 3.549-3.054 6.396-6.634 6.396a6.603 6.603 0 01-3.083-.763 6.637 6.637 0 005.388 2.77zm23.25-27.33V11a10.93 10.93 0 01-5.99-1.78 11.006 11.006 0 005.99 3.541" fill="#00F2EA"/><path d="M37.118 9.22a10.952 10.952 0 01-2.705-7.213h-2.118a11.02 11.02 0 004.823 7.212zM17.554 24.792a6.654 6.654 0 00-6.646 6.646 6.651 6.651 0 003.562 5.884 6.604 6.604 0 01-1.258-3.876 6.654 6.654 0 016.647-6.648 6.53 6.53 0 011.96.308v-8.073a14.437 14.437 0 00-1.96-.143c-.116 0-.23.007-.343.01v6.2a6.534 6.534 0 00-1.962-.308z" fill="#FF004F"/><path d="M43.109 12.762v6.146c-4.1 0-7.899-1.312-11.001-3.538v16.07c0 8.025-6.528 14.554-14.554 14.554-3.1 0-5.977-.979-8.34-2.639A14.511 14.511 0 0019.859 48c8.025 0 14.554-6.53 14.554-14.553v-16.07a18.806 18.806 0 0011.001 3.538v-7.909c-.791 0-1.56-.085-2.305-.245" fill="#FF004F"/><path d="M32.108 31.44V15.37a18.802 18.802 0 0011 3.538v-6.146a11.005 11.005 0 01-5.99-3.543 11.021 11.021 0 01-4.824-7.212h-5.789l-.012 31.69c-.133 3.548-3.054 6.396-6.634 6.396a6.637 6.637 0 01-5.388-2.77 6.651 6.651 0 01-3.563-5.884 6.654 6.654 0 016.646-6.646c.684 0 1.34.112 1.962.308v-6.2c-7.867.184-14.21 6.635-14.21 14.546a14.5 14.5 0 003.908 9.91 14.468 14.468 0 008.34 2.637c8.026 0 14.554-6.53 14.554-14.555z" fill="#fff"/></g><defs><clipPath id="clip0_1_2074"><path fill="#fff" d="M0 0h48v48H0z"/></clipPath></defs></svg>